<svg xmlns="http://www.w3.org/2000/svg" xmlns:xlink="http://www.w3.org/1999/xlink" viewBox="0 0 70 70"><defs><style>.a,.c{fill:#e4e4e4;}.b{clip-path:url(#a);}.c{fill-rule:evenodd;}</style><clipPath id="a"><path class="a" d="M0-446.521H70v70H0Z" transform="translate(0 446.521)"/></clipPath></defs><g transform="translate(0 446.521)"><g class="b" transform="translate(0 -446.521)"><g transform="translate(0 0)"><path class="c" d="M-13.663-192.124c.029.611.054,1.477.118,2.341.056.744.155,1.486.241,2.228.03.262.074.523.12.784.053.3.115.6.176.894.088.427.168.856.272,1.278.122.493.261.982.4,1.469.158.538.315,1.077.5,1.605.194.553.417,1.1.633,1.641.3.755.646,1.486,1.009,2.212a30.517,30.517,0,0,0,1.545,2.715A31.3,31.3,0,0,0-5.9-171.279a30.907,30.907,0,0,0,4.147,3.988,27.231,27.231,0,0,0,2.609,1.853c.532.329,1.065.655,1.611.96.464.26.944.493,1.421.729.342.169.689.327,1.038.48.4.177.807.353,1.216.515.385.152.776.288,1.167.426q.4.141.806.267c.308.1.618.184.928.271.355.1.708.2,1.067.289.422.1.848.189,1.274.273.517.1,1.034.208,1.554.288a30.051,30.051,0,0,0,3.087.324,33.261,33.261,0,0,0,4.782-.058c.571-.054,1.143-.093,1.711-.167.594-.077,1.184-.187,1.775-.286.24-.04.48-.084.718-.133.419-.087.838-.173,1.254-.272.358-.085.713-.185,1.069-.282.45-.124.9-.242,1.348-.381.4-.123.786-.263,1.174-.407.6-.222,1.2-.444,1.785-.685.559-.229,1.116-.468,1.66-.732.668-.325,1.33-.664,1.979-1.026a33.207,33.207,0,0,0,2.989-1.884,32.538,32.538,0,0,0,2.973-2.359,31.492,31.492,0,0,0,3.643-3.852c.529-.667,1.033-1.353,1.506-2.061.517-.774,1-1.566,1.442-2.387.257-.482.508-.969.747-1.46.179-.367.34-.743.5-1.12q.253-.6.485-1.211c.147-.388.284-.78.418-1.173.1-.281.183-.565.268-.849.1-.329.195-.658.282-.99.1-.364.183-.73.27-1.1q.151-.636.293-1.274c.046-.206.085-.414.121-.622q.083-.478.157-.958c.063-.4.134-.809.178-1.216.067-.618.113-1.237.168-1.856a30.045,30.045,0,0,0,.046-3.885c-.029-.719-.12-1.436-.19-2.153-.037-.375-.086-.749-.14-1.122-.042-.294-.1-.587-.151-.879-.05-.266-.107-.531-.165-.8-.087-.4-.167-.8-.271-1.2-.122-.465-.261-.927-.4-1.387-.158-.51-.314-1.021-.5-1.522q-.289-.788-.631-1.557c-.308-.692-.621-1.384-.966-2.057a28.44,28.44,0,0,0-1.64-2.774q-.857-1.286-1.832-2.484a31.267,31.267,0,0,0-2.5-2.727,33.209,33.209,0,0,0-2.534-2.212q-1.22-.962-2.524-1.8-.781-.5-1.589-.958c-.607-.342-1.224-.667-1.845-.983-.439-.224-.889-.426-1.339-.628-.318-.143-.642-.272-.965-.4s-.66-.261-.992-.385c-.364-.135-.729-.267-1.1-.39-.3-.1-.6-.187-.906-.275-.467-.137-.933-.278-1.4-.4-.4-.1-.808-.186-1.213-.275q-.3-.066-.6-.125c-.323-.063-.646-.129-.971-.182-.344-.057-.691-.1-1.037-.15-.477-.063-.953-.133-1.432-.178a33.061,33.061,0,0,0-3.773-.135c-.527.011-1.055.026-1.581.062q-.907.063-1.811.168c-.628.073-1.254.168-1.88.259-.221.032-.441.076-.66.123q-.647.139-1.291.289c-.365.085-.731.168-1.092.27q-.664.187-1.32.406c-.536.179-1.073.358-1.6.563-.636.249-1.27.507-1.889.8-.72.336-1.434.69-2.132,1.071A28.33,28.33,0,0,0-.133-219.5a31.088,31.088,0,0,0-3.691,3.137A32.007,32.007,0,0,0-7.1-212.549a28.11,28.11,0,0,0-1.718,2.61c-.413.72-.808,1.451-1.2,2.183-.174.325-.325.663-.477,1q-.269.594-.521,1.2c-.139.334-.27.673-.4,1.012q-.209.555-.406,1.115c-.093.268-.179.538-.261.809q-.147.483-.282.969c-.1.343-.195.686-.278,1.032-.1.411-.186.824-.271,1.238-.1.5-.216,1.008-.292,1.517-.1.686-.179,1.376-.261,2.065-.135,1.137-.172,2.28-.2,3.68m31.98,34.282c-.047-.071-.12-.071-.193-.074-.52-.021-1.042-.031-1.561-.069-.69-.051-1.379-.12-2.067-.19-.413-.042-.825-.1-1.235-.155-.332-.048-.663-.112-.993-.17-.3-.054-.61-.109-.914-.168-.22-.042-.439-.088-.657-.14-.442-.1-.884-.208-1.324-.323-.337-.088-.67-.192-1.005-.29-.3-.089-.606-.175-.907-.271-.276-.088-.549-.183-.821-.281q-.52-.186-1.036-.382c-.326-.124-.652-.247-.972-.383q-.59-.25-1.171-.522c-.435-.2-.873-.4-1.3-.627Q1.1-162.46.046-163.069c-.758-.438-1.484-.929-2.2-1.437A33.336,33.336,0,0,1-7.5-169.255a31.734,31.734,0,0,1-2.52-3.154,33.712,33.712,0,0,1-1.856-2.968q-.644-1.159-1.191-2.366c-.262-.575-.493-1.165-.726-1.753-.182-.46-.349-.925-.513-1.391-.1-.28-.18-.565-.267-.849-.1-.322-.2-.642-.289-.966-.1-.356-.186-.715-.275-1.074-.045-.179-.085-.36-.124-.541-.1-.445-.2-.89-.285-1.337-.065-.33-.113-.664-.164-1-.048-.307-.094-.614-.134-.922-.063-.485-.14-.969-.178-1.456-.062-.811-.107-1.623-.143-2.435-.052-1.184-.032-2.368.022-3.55.034-.752.115-1.5.184-2.253q.061-.671.151-1.34c.049-.367.116-.731.177-1.1.05-.3.1-.6.158-.9.053-.279.115-.556.175-.834.044-.2.088-.4.138-.6.163-.639.315-1.282.5-1.916.153-.532.337-1.055.517-1.579.156-.455.318-.908.493-1.357.161-.411.335-.817.517-1.219.228-.5.462-1.006.709-1.5.236-.472.474-.943.744-1.4.463-.776.929-1.551,1.435-2.3.454-.672.95-1.316,1.452-1.953a28.944,28.944,0,0,1,2.586-2.838,31.5,31.5,0,0,1,3.213-2.724,33.132,33.132,0,0,1,2.865-1.9q1.2-.709,2.45-1.317c.621-.3,1.257-.571,1.892-.839.533-.225,1.072-.436,1.614-.637.382-.142.772-.261,1.16-.385.432-.139.864-.279,1.3-.406.341-.1.687-.181,1.031-.27.223-.058.446-.115.67-.17.185-.045.371-.092.558-.13q.687-.139,1.376-.269c.233-.044.466-.087.7-.123.632-.1,1.262-.2,1.9-.283.588-.073,1.181-.108,1.771-.172.775-.084,1.552-.1,2.33-.12a33.154,33.154,0,0,1,4.03.121c.662.068,1.324.14,1.983.227q.832.11,1.659.26c.447.082.888.19,1.331.291.385.088.771.174,1.152.274.337.088.67.194,1,.294.284.085.567.169.849.261s.572.2.856.3q.343.123.684.253c.331.127.665.25.991.388.387.164.771.338,1.152.516.429.2.861.4,1.277.62q.973.522,1.927,1.082a29.949,29.949,0,0,1,3.115,2.126,33.436,33.436,0,0,1,3.039,2.655,33.622,33.622,0,0,1,2.951,3.335,31.13,31.13,0,0,1,2.187,3.2c.437.737.853,1.487,1.241,2.251.346.681.654,1.382.956,2.084.244.569.466,1.148.677,1.73.2.563.393,1.133.57,1.706.163.529.306,1.064.45,1.6.105.389.208.778.294,1.171.1.451.183.906.263,1.361.086.488.16.978.24,1.467.132.8.2,1.613.271,2.424.006.071.023.142.035.213v5.794a1.472,1.472,0,0,0-.03.152c-.025.27-.043.54-.072.81-.047.44-.1.88-.151,1.32q-.049.393-.121.784c-.091.5-.185,1-.286,1.5-.082.407-.165.815-.266,1.218-.124.492-.261.982-.405,1.468-.157.531-.315,1.063-.5,1.585-.209.6-.428,1.192-.677,1.773-.306.714-.64,1.417-.974,2.118A26.864,26.864,0,0,1,49-174.7a33.164,33.164,0,0,1-1.939,2.843,33.873,33.873,0,0,1-2.786,3.215,35.042,35.042,0,0,1-4.8,4.081q-1.267.9-2.607,1.676c-.438.254-.884.494-1.33.732-.377.2-.757.4-1.142.582-.456.219-.916.429-1.378.636-.312.139-.628.269-.945.4s-.659.263-.992.387c-.271.1-.546.191-.819.285s-.559.2-.841.283c-.314.1-.631.185-.947.275-.348.1-.7.2-1.046.29-.389.1-.781.184-1.174.269-.476.1-.951.213-1.431.293-.624.1-1.251.186-1.877.271a25.2,25.2,0,0,1-2.52.217c-.356.012-.711.032-1.066.048-.066,0-.135,0-.17.074Z" transform="translate(16.194 227.843)"/></g><g transform="translate(4.823 4.469)"><path class="c" d="M-308.154-158.166h0c-.31,0-.619,0-.929,0-.177,0-.206.031-.206.211q0,.892,0,1.784c0,.207.038.243.243.244q.879,0,1.759,0c.2,0,.225-.022.226-.229q0-.9,0-1.8c0-.189-.018-.205-.2-.206-.3,0-.593,0-.889,0m-52.587,1.113c0-.3,0-.608,0-.912,0-.177-.021-.2-.19-.2q-.919,0-1.838,0c-.183,0-.209.027-.21.206q0,.9,0,1.8c0,.193.038.228.236.228q.889,0,1.779,0c.2,0,.222-.026.223-.234,0-.3,0-.595,0-.892m1.263-13.18c.009.1.015.21.032.321.021.139.053.154.194.174a2.515,2.515,0,0,1,.441.091,3.973,3.973,0,0,1,.411.188,1.319,1.319,0,0,0,.58.174c.155,0,.191-.027.252-.169s.121-.263.189-.391q.277-.524.559-1.046a.216.216,0,0,0-.012-.272,1.716,1.716,0,0,0-1.3-.689,1.158,1.158,0,0,0-1.033.514,2.031,2.031,0,0,0-.309,1.1M-312.017-172a.672.672,0,0,0-.625.309,3.5,3.5,0,0,0-.281.406,1.035,1.035,0,0,0-.077.823,5.87,5.87,0,0,0,.531,1.058.266.266,0,0,0,.247.133,1.333,1.333,0,0,0,.678-.184,2,2,0,0,1,.774-.279c.133-.012.16-.043.148-.18a5.582,5.582,0,0,0-.158-1.2,1.166,1.166,0,0,0-1.238-.891m-36.835-7.057a2.055,2.055,0,0,0,1.111-.285,1.725,1.725,0,0,0,.73-1.4.233.233,0,0,0-.1-.2c-.1-.08-.193-.159-.292-.236a1.576,1.576,0,0,0-1.373-.387c-.236.054-.462.146-.7.206a.3.3,0,0,0-.227.241,1.117,1.117,0,0,0,.188.994,1.339,1.339,0,0,1,.319.93c-.01.09.04.136.127.138s.171,0,.217,0M-320.3-180.8c-.006-.086-.011-.171-.019-.257a.337.337,0,0,0-.213-.3,2.628,2.628,0,0,0-1.087-.245,1.25,1.25,0,0,0-1.04.47,2.013,2.013,0,0,0-.373,1.006.186.186,0,0,0,.126.216,1.4,1.4,0,0,1,.3.182c.176.148.335.316.509.468a1.152,1.152,0,0,0,1.148.214.144.144,0,0,0,.113-.158,2.94,2.94,0,0,1,.05-.428,1.718,1.718,0,0,1,.3-.55,1.022,1.022,0,0,0,.183-.615m9.763,36.928c-.013-.111-.024-.223-.04-.334a.265.265,0,0,0-.179-.217,3.673,3.673,0,0,1-.358-.163c-.359-.192-.714-.391-1.072-.585-.152-.082-.194-.074-.254.083a3.944,3.944,0,0,1-.463.8,2.01,2.01,0,0,0-.381.943c-.031.32.023.312.261.283.026,0,.053,0,.079,0a.73.73,0,0,1,.622.283c.056.064.1.141.154.206a2.371,2.371,0,0,0,.323.344.7.7,0,0,0,.636.114c.128-.037.14-.061.141-.2,0-.085.006-.171.013-.256a1.354,1.354,0,0,1,.3-.635,1.144,1.144,0,0,0,.216-.668m-39.217,10.161c.017.08.04.23.083.374a.27.27,0,0,0,.119.144c.276.151.557.292.836.438.209.11.416.224.627.331.148.075.211.043.263-.112a.8.8,0,0,1,.069-.163c.143-.236.286-.473.437-.7a1.817,1.817,0,0,0,.321-.962.252.252,0,0,0-.182-.29c-.132-.058-.261-.123-.388-.19-.342-.181-.682-.368-1.025-.547-.134-.07-.174-.042-.245.09a2.356,2.356,0,0,1-.247.376c-.113.137-.248.255-.366.388a1.227,1.227,0,0,0-.3.828m28.172-1.526a2.868,2.868,0,0,0-.331.045,2.758,2.758,0,0,0-.995.506.261.261,0,0,0-.114.289c.027.122.063.243.085.366a2.863,2.863,0,0,0,.356.957,1.715,1.715,0,0,0,.7.656c.116.06.168.047.222-.065a.729.729,0,0,1,.444-.365c.2-.071.4-.144.59-.222a.357.357,0,0,0,.26-.376,3.306,3.306,0,0,0-.159-1.031,1.121,1.121,0,0,0-1.052-.761m-35.471-7.826.079,0c.2.011.221-.017.172-.208-.035-.141-.06-.285-.1-.424a3.929,3.929,0,0,0-.321-.89,1.234,1.234,0,0,0-1.171-.665.344.344,0,0,0-.213.077,2.145,2.145,0,0,0-.726,1.59,3.327,3.327,0,0,0,.305,1.321.274.274,0,0,0,.16.127.743.743,0,0,0,.823-.23c.113-.128.21-.271.318-.4a.728.728,0,0,1,.673-.3m22.037-40c.382,0,.765,0,1.147,0a.2.2,0,0,0,.218-.153,2.014,2.014,0,0,0,.1-.8,1.24,1.24,0,0,0-.355-.838,1.492,1.492,0,0,0-1.2-.459,1.4,1.4,0,0,0-1.394,1.425,3.2,3.2,0,0,0,.086.585c.043.219.071.238.289.239.369,0,.738,0,1.108,0m.014,53.841c.362,0,.725,0,1.087,0,.213,0,.233-.017.234-.221q0-.912,0-1.824c0-.184-.022-.2-.208-.2q-1.117,0-2.234,0c-.2,0-.23.03-.231.229q0,.892,0,1.785c0,.208.032.237.245.237.369,0,.738,0,1.107,0m.044-4.466c.112,0,.224,0,.336,0a28.147,28.147,0,0,0,2.879-.2c.294-.035.587-.081.879-.132s.6-.112.891-.176c.4-.086.8-.165,1.193-.271q.667-.18,1.321-.4c.566-.194,1.135-.384,1.683-.62.64-.275,1.268-.579,1.885-.9a19.853,19.853,0,0,0,2.409-1.507,22.176,22.176,0,0,0,2.255-1.864,23.144,23.144,0,0,0,2.937-3.366,21.564,21.564,0,0,0,1.446-2.291c.294-.545.58-1.1.847-1.654.213-.446.4-.9.582-1.363s.342-.928.5-1.4c.145-.438.287-.879.4-1.326q.216-.854.382-1.72c.114-.59.22-1.182.291-1.779a20.7,20.7,0,0,0,.161-2.354,22.784,22.784,0,0,0-.114-3.01c-.045-.354-.076-.71-.131-1.062-.079-.509-.163-1.018-.266-1.522-.079-.387-.182-.771-.291-1.151-.157-.545-.311-1.091-.5-1.626s-.4-1.048-.627-1.558c-.3-.673-.61-1.346-.955-2a21,21,0,0,0-2.412-3.616,19.746,19.746,0,0,0-3.414-3.231,22.92,22.92,0,0,0-2.488-1.6,18.891,18.891,0,0,0-2.29-1.148c-.562-.221-1.129-.435-1.7-.62-.475-.153-.961-.275-1.449-.385-.661-.15-1.324-.3-1.993-.4-.761-.117-1.53-.189-2.3-.264a25.84,25.84,0,0,0-4.759.028c-.348.03-.7.068-1.04.124-.546.089-1.089.2-1.632.3-.609.114-1.206.272-1.8.444a18.049,18.049,0,0,0-1.722.571c-.555.223-1.109.448-1.657.684a20.707,20.707,0,0,0-2.207,1.139,23.6,23.6,0,0,0-3.2,2.242,22.046,22.046,0,0,0-3.665,3.875,18.967,18.967,0,0,0-1.436,2.227c-.3.55-.571,1.114-.835,1.682-.191.412-.354.838-.52,1.261-.094.239-.174.484-.25.729-.1.321-.194.644-.279.969-.1.389-.209.779-.284,1.174-.1.538-.186,1.081-.26,1.624-.076.563-.154,1.128-.188,1.694a25.051,25.051,0,0,0-.083,2.874c.039.726.083,1.452.143,2.177.037.454.1.906.165,1.358.04.288.1.573.155.858q.077.388.167.774c.086.366.166.734.269,1.1.121.425.256.846.4,1.264.156.455.313.911.5,1.355.2.475.42.938.639,1.4a18.5,18.5,0,0,0,1.07,1.938,22.35,22.35,0,0,0,2.134,2.874,21.982,21.982,0,0,0,5.164,4.33c.506.307,1.025.594,1.55.866.431.224.878.419,1.322.616.294.131.594.25.9.363q.591.221,1.188.423.467.157.943.29c.349.1.7.185,1.052.268.263.062.528.113.793.165.3.06.607.125.913.169.424.062.85.1,1.275.16a26.328,26.328,0,0,0,2.743.14m-30.209-24.266q0-1.131,0-2.261c0-.162.01-.177.159-.226a7.659,7.659,0,0,1,1.737-.351,14.412,14.412,0,0,1,2.331-.035.3.3,0,0,0,.3-.145,4.6,4.6,0,0,0,.466-.937,12.224,12.224,0,0,0,.434-1.686c.1-.458.166-.923.265-1.381a7.143,7.143,0,0,1,.411-1.4.4.4,0,0,0-.054-.457,3.505,3.505,0,0,0-1.065-.869c-.468-.267-.945-.521-1.4-.8a2.076,2.076,0,0,1-.784-.847,2.326,2.326,0,0,1-.124-.291.276.276,0,0,1,0-.154,8.924,8.924,0,0,1,.464-1.261,17.389,17.389,0,0,1,1.9-3c.206-.283.417-.562.61-.853a.278.278,0,0,1,.318-.13,3.214,3.214,0,0,1,1.425.594c.36.267.713.545,1.087.79a4.708,4.708,0,0,0,.727.349.32.32,0,0,0,.209-.005,4.49,4.49,0,0,0,1.7-1.044c.434-.423.838-.878,1.251-1.324a10.767,10.767,0,0,1,1.139-1.127,5.8,5.8,0,0,1,.546-.391.2.2,0,0,0,.11-.246c-.051-.212-.1-.426-.16-.633a6.5,6.5,0,0,0-.9-1.708c-.2-.3-.394-.594-.594-.889a.327.327,0,0,1-.045-.317,3.973,3.973,0,0,1,.6-1.106,5.4,5.4,0,0,1,1.7-1.391,13.11,13.11,0,0,1,1.692-.755c.522-.2,1.053-.374,1.58-.562a.171.171,0,0,1,.229.09c.286.458.6.9.858,1.375.409.76.779,1.541,1.165,2.313.079.157.135.173.3.109.348-.14.7-.273,1.048-.406.264-.1.529-.2.8-.293s.548-.186.825-.269q.492-.147.988-.276c.274-.071.55-.132.826-.191.232-.05.465-.095.7-.137q.292-.052.586-.091c.224-.029.254-.057.254-.288q0-1.964,0-3.929c0-.046,0-.093,0-.139a.184.184,0,0,1,.122-.2,4.189,4.189,0,0,1,.414-.181,5.665,5.665,0,0,1,1.421-.23c.9-.035,1.792.017,2.688.055.585.025,1.173.007,1.759,0,.173,0,.178-.011.236.162a.307.307,0,0,0,.266.23c.147.022.168.06.176.214,0,.046,0,.093,0,.139,0,1.144,0,2.288,0,3.433a.439.439,0,0,0,.218.407,4.273,4.273,0,0,0,.954.468,15.629,15.629,0,0,0,1.715.455c.57.135,1.137.284,1.695.461a3.244,3.244,0,0,1,1.042.552c.17.135.175.132.355,0a2.89,2.89,0,0,0,.879-1.055c.242-.475.461-.962.685-1.447a5.23,5.23,0,0,1,.714-1.182c.161-.193.185-.2.42-.119.293.1.592.179.883.281.322.113.644.231.958.367a10.834,10.834,0,0,1,1.471.76,7.483,7.483,0,0,1,2.059,1.86.864.864,0,0,1,.11.164.281.281,0,0,1,.025.166,4.412,4.412,0,0,1-.583,1.335c-.261.4-.533.8-.776,1.218-.145.249-.241.526-.361.789a.185.185,0,0,0,.041.2c.21.287.413.581.636.858a19.631,19.631,0,0,0,2.552,2.481c.329.285.673.554.988.854a.553.553,0,0,0,.54.134,3.171,3.171,0,0,0,1.427-.683c.289-.228.584-.451.886-.662a2.615,2.615,0,0,1,1.125-.4.314.314,0,0,1,.33.122,13.463,13.463,0,0,1,.812,1.1c.473.784.9,1.6,1.36,2.389.224.388.468.765.715,1.139a.407.407,0,0,1,.069.334,2.532,2.532,0,0,1-.905,1.491,6.908,6.908,0,0,1-1.308.768c-.384.187-.765.382-1.15.566a.213.213,0,0,0-.135.254c.053.313.1.627.167.936.09.406.2.808.3,1.209.086.325.188.646.276.971.1.357.189.715.272,1.075.069.3.128.608.177.914.038.235.056.472.08.709s.059.259.284.257c.54-.007,1.081-.029,1.621-.02a11.284,11.284,0,0,1,2.162.2,6.627,6.627,0,0,1,.68.205c.141.046.155.083.151.236-.011.456-.033.912-.025,1.368.01.562.052,1.123.071,1.685.013.377.005.754.013,1.131a6.571,6.571,0,0,1-.129,1.321,5.165,5.165,0,0,1-.242.772.3.3,0,0,1-.332.216c-.428-.013-.857,0-1.286,0-.752,0-1.5,0-2.255,0a.281.281,0,0,0-.319.2c-.131.359-.284.709-.416,1.068q-.164.445-.3.9c-.1.335-.185.674-.275,1.012q-.071.268-.133.538c-.111.482-.22.965-.331,1.447-.057.251-.117.5-.174.753-.015.064-.026.129-.038.195a.29.29,0,0,0,.088.268,3.021,3.021,0,0,0,.936.65c.409.2.828.372,1.234.572a2.388,2.388,0,0,1,1.066.884,1.708,1.708,0,0,1,.159.317.389.389,0,0,1,0,.23c-.106.326-.214.652-.341.97a14.112,14.112,0,0,1-.758,1.609,12.35,12.35,0,0,1-1.817,2.487.471.471,0,0,1-.4.161,3.427,3.427,0,0,1-2-.708c-.393-.31-.773-.638-1.154-.964a.259.259,0,0,0-.316-.048,6.728,6.728,0,0,0-2.25,1.579c-.461.481-.893.989-1.333,1.49-.339.387-.667.784-1.005,1.173a.342.342,0,0,0-.08.355,5.694,5.694,0,0,0,.877,1.718,6.853,6.853,0,0,1,.685,1.177,3.266,3.266,0,0,1,.139.37.32.32,0,0,1-.02.188,3.765,3.765,0,0,1-1.453,1.755,6.809,6.809,0,0,1-1.3.7c-.586.235-1.174.462-1.761.692-.22.087-.438.181-.661.259a.387.387,0,0,1-.226,0,2.224,2.224,0,0,1-1.3-1.087c-.221-.388-.394-.8-.593-1.205-.178-.36-.362-.717-.54-1.077a.192.192,0,0,0-.242-.115c-.249.06-.5.112-.747.182-.3.087-.6.188-.9.286s-.6.2-.9.3q-.5.152-1.007.282c-.2.053-.413.082-.618.129a7.235,7.235,0,0,1-1.634.118c-.232,0-.263.023-.264.258q0,1.954,0,3.909c0,.059,0,.119,0,.178a.17.17,0,0,1-.121.164c-.245.076-.486.168-.736.223a14.147,14.147,0,0,1-3.74.223,9.925,9.925,0,0,1-1.682-.234c-.23-.051-.452-.14-.678-.211a.154.154,0,0,1-.115-.144c-.005-.059-.006-.119-.006-.178,0-1.164,0-2.328,0-3.492a.312.312,0,0,0-.2-.34c-.337-.13-.671-.273-1.018-.373-.43-.124-.869-.213-1.306-.311-.263-.059-.531-.1-.794-.159-.4-.094-.806-.2-1.206-.3a4.422,4.422,0,0,1-1.126-.468.268.268,0,0,0-.313.03,2.721,2.721,0,0,0-.828.945c-.235.435-.45.88-.676,1.32a3.427,3.427,0,0,1-.791,1.054.4.4,0,0,1-.415.1c-.24-.069-.491-.1-.731-.169-.335-.094-.666-.2-1-.314a7.865,7.865,0,0,1-1.493-.711,11.145,11.145,0,0,1-2.2-1.761.3.3,0,0,1-.079-.287,4.868,4.868,0,0,1,.773-1.911q.433-.674.882-1.339a.287.287,0,0,0,.02-.31,7.277,7.277,0,0,0-1.9-2.573c-.635-.576-1.3-1.124-1.943-1.686-.135-.117-.269-.234-.4-.356a.269.269,0,0,0-.319-.053,5.426,5.426,0,0,0-1.415.89,4.922,4.922,0,0,1-.915.581,2.8,2.8,0,0,1-.972.24.836.836,0,0,1-.359-.094,3.13,3.13,0,0,1-1.357-1.114,8.451,8.451,0,0,1-.786-1.46c-.259-.577-.526-1.15-.8-1.722a3.659,3.659,0,0,0-.243-.408.29.29,0,0,1-.038-.224,2.322,2.322,0,0,1,1.371-1.747,9.657,9.657,0,0,1,1.511-.568c.17-.052.34-.106.5-.174.133-.055.142-.085.122-.231-.054-.386-.1-.774-.171-1.156-.067-.343-.165-.68-.257-1.017-.1-.356-.205-.71-.307-1.065-.1-.336-.2-.671-.285-1.009a5.012,5.012,0,0,1-.13-.6,8.114,8.114,0,0,1-.144-1.339c0-.013,0-.026,0-.04-.008-.251-.023-.266-.276-.266h-3.877l-.178,0a.212.212,0,0,1-.2-.132,3.374,3.374,0,0,1-.326-1.1,12.1,12.1,0,0,1-.059-2.435c.012-.191.02-.383.03-.575Z" transform="translate(365.236 187.571)"/></g><g transform="translate(24.371 33.632)"><path class="c" d="M-31.349-101.794c.114-.048.189-.073.257-.109a2.839,2.839,0,0,0,1.1-1.086c.359-.587.6-1.232.9-1.849a4.856,4.856,0,0,1,.7-1.12,2.37,2.37,0,0,1,.885-.649,2.926,2.926,0,0,1,1.256-.213c.23.011.458.06.687.071a1.532,1.532,0,0,1,.967.443,3.98,3.98,0,0,1,.919,1.439c.239.55.451,1.111.7,1.657a2.843,2.843,0,0,0,.779,1.06,3.484,3.484,0,0,0,.405.28c.124.074.194.041.233-.1.025-.089.032-.182.053-.272.053-.238.1-.478.165-.714.09-.338.188-.673.288-1.008.094-.316.193-.63.293-.944.088-.277.18-.552.27-.827q.2-.621.4-1.241c.1-.3.193-.6.29-.9.088-.276.177-.553.263-.829.1-.308.2-.616.286-.926.095-.33.181-.662.267-.993.1-.377.209-.751.285-1.132.107-.544.2-1.092.277-1.64a7.213,7.213,0,0,0-.018-2.485,3.161,3.161,0,0,0-.519-1.25A2.708,2.708,0,0,0-20.9-118.2a4.648,4.648,0,0,0-1.2-.013,2.52,2.52,0,0,0-.877.283,3.452,3.452,0,0,0-1.016.87c-.277.328-.544.663-.816,1a5.023,5.023,0,0,1-1.525,1.3c-.136.072-.147.077-.255-.029-.165-.161-.325-.328-.489-.491a16.071,16.071,0,0,0-2.131-1.856,5.549,5.549,0,0,0-2.252-1,2.871,2.871,0,0,0-1.272.075,3.564,3.564,0,0,0-1.638,1.061.3.3,0,0,0-.088.232c0,.119,0,.238,0,.357a18.448,18.448,0,0,0,.141,2.136c.083.615.166,1.231.256,1.845.035.241.087.481.138.72.091.419.183.838.282,1.255q.135.568.285,1.132c.088.332.184.661.277.991s.186.674.282,1.01.189.646.282.969c.1.348.2.7.3,1.046.092.331.183.661.268.994.1.377.186.756.274,1.135.069.3.129.593.2.889.036.158.08.315.128.5m.418,2.22c-.514,0-1.028,0-1.542,0-.226,0-.214-.007-.261-.225q-.119-.561-.271-1.115c-.087-.317-.193-.63-.3-.943-.083-.25-.175-.5-.267-.744q-.2-.537-.406-1.072c-.123-.32-.251-.638-.377-.957-.136-.343-.274-.685-.41-1.028-.168-.423-.338-.844-.5-1.268q-.214-.553-.415-1.111c-.128-.353-.255-.707-.375-1.063-.105-.312-.205-.626-.3-.942-.1-.334-.207-.668-.291-1.007-.1-.409-.191-.823-.271-1.237-.062-.317-.105-.639-.15-.959a8.05,8.05,0,0,1,.06-2.743,5.728,5.728,0,0,1,.821-2,5.4,5.4,0,0,1,1.629-1.619,5.565,5.565,0,0,1,1.469-.661,5.685,5.685,0,0,1,1.8-.206,5.679,5.679,0,0,1,1.622.319,6.282,6.282,0,0,1,1.749.937,7.161,7.161,0,0,1,1.279,1.234c.148.184.17.18.372.053a7.614,7.614,0,0,0,1.589-1.448,3.573,3.573,0,0,1,.97-.8,2.826,2.826,0,0,1,.835-.292c.272-.049.546-.088.817-.141a6.493,6.493,0,0,1,1.833-.066,4.066,4.066,0,0,1,2.561,1.1,4.309,4.309,0,0,1,.907,1.333,6.971,6.971,0,0,1,.41,1.257,5.774,5.774,0,0,1,.127.722,13.164,13.164,0,0,1,.049,2.712c-.054.546-.089,1.094-.164,1.637s-.182,1.068-.284,1.6c-.083.434-.178.866-.271,1.3-.038.174-.079.348-.126.519-.172.616-.343,1.233-.523,1.846-.156.531-.317,1.061-.491,1.587-.16.481-.336.957-.513,1.433-.2.537-.4,1.075-.616,1.605-.227.555-.474,1.1-.717,1.65-.09.2-.2.4-.289.606a.382.382,0,0,1-.305.249,6.423,6.423,0,0,1-1.517.065,3.113,3.113,0,0,1-1.134-.311,3.115,3.115,0,0,1-1.207-1.084,6.369,6.369,0,0,1-.592-1.094c-.267-.624-.529-1.25-.8-1.873-.065-.151-.145-.3-.22-.443s-.142-.179-.294-.082a3.357,3.357,0,0,0-.918.862,8.031,8.031,0,0,0-.843,1.54c-.285.652-.59,1.294-.89,1.94-.044.1-.105.183-.155.275a.29.29,0,0,1-.291.159c-.534-.006-1.068,0-1.6,0" transform="translate(37.156 120.719)"/></g><g transform="translate(25.886 20.962)"><path class="c" d="M-84.824-22.028c-.1-.092-.2-.049-.289-.024a1.881,1.881,0,0,0-.752.379q-.347.309-.68.635a2.172,2.172,0,0,1-1.458.7.391.391,0,0,1-.418-.19.516.516,0,0,0-.044-.066,5.682,5.682,0,0,0-1.44-1.426,2.422,2.422,0,0,0-2.194-.253,4.65,4.65,0,0,0-1.314.712c-.466.356-.918.73-1.37,1.1a.422.422,0,0,1-.361.106,1.469,1.469,0,0,1-.772-.413c-.268-.245-.514-.513-.782-.758a3.358,3.358,0,0,0-.516-.395.548.548,0,0,0-.768.253.98.98,0,0,1,.143.126.918.918,0,0,1,.192.293,2.832,2.832,0,0,1,.1.663c.005.356-.02.714-.045,1.07a3.209,3.209,0,0,0,.076.945.553.553,0,0,0,.589.468q5.547,0,11.095,0a.4.4,0,0,0,.392-.207,1.866,1.866,0,0,0,.157-.361,3.453,3.453,0,0,0,.114-1c0-.423,0-.846.012-1.269a2.1,2.1,0,0,1,.211-.9c.034-.068.079-.131.12-.2m-6.567,6.158h-7.693c-.046,0-.092,0-.138,0a.147.147,0,0,1-.142-.118,1.324,1.324,0,0,1-.026-.176c-.057-.5-.1-1-.175-1.5s-.188-1-.282-1.5c-.053-.279-.1-.559-.156-.837s-.115-.583-.17-.875c-.052-.272-.111-.544-.147-.819-.066-.5-.117-1.011-.173-1.516a8.342,8.342,0,0,1,.05-2.077,6.251,6.251,0,0,1,.129-.62c.042-.171.1-.209.282-.21a3.838,3.838,0,0,1,1.283.2A3.207,3.207,0,0,1-97.7-25.3c.377.329.737.68,1.106,1.019a4.884,4.884,0,0,0,1.1.794.415.415,0,0,0,.286.037,2.371,2.371,0,0,0,1.215-.62c.233-.232.448-.483.661-.735a5.673,5.673,0,0,1,1.021-1.044,1.307,1.307,0,0,1,.947-.247,2.255,2.255,0,0,1,1.475.718c.3.332.578.686.862,1.033a3.047,3.047,0,0,0,.836.747,1.8,1.8,0,0,0,.283.138.367.367,0,0,0,.193.01,2.954,2.954,0,0,0,1.308-.619c.37-.318.724-.655,1.08-.989a4.454,4.454,0,0,1,.909-.693,3.275,3.275,0,0,1,1.737-.365c.147.006.183.055.222.205a8.146,8.146,0,0,1,.148,3.109c-.053.42-.1.84-.161,1.258-.045.3-.111.6-.168.9-.042.22-.088.44-.129.661-.13.7-.261,1.4-.385,2.1q-.1.556-.172,1.116c-.028.209-.035.421-.049.632-.016.244-.038.267-.287.267h-7.732" transform="translate(100.537 26.123)"/></g><g transform="translate(33.563 16.066)"><path class="c" d="M-16.026-7.985c-.043.205-.086.41-.128.616a.156.156,0,0,1-.181.139c-.784,0-1.568,0-2.352,0-.159,0-.166-.016-.209-.177a2.049,2.049,0,0,1-.095-.723A1.326,1.326,0,0,1-18.4-9.2a1.558,1.558,0,0,1,1.265-.218,1.408,1.408,0,0,1,.884.615,1.57,1.57,0,0,1,.225.819" transform="translate(18.995 9.47)"/></g><g transform="translate(25.732 16.078)"><path class="c" d="M-5.921-11.976c-.3,0-.607,0-.91,0-.166,0-.185-.018-.185-.18q0-.922,0-1.845c0-.181.026-.2.211-.2q.88,0,1.76,0c.2,0,.233.032.234.228q0,.9,0,1.805c0,.166-.027.19-.2.192-.3,0-.607,0-.91,0" transform="translate(7.017 14.202)"/></g><g transform="translate(42.151 16.078)"><path class="c" d="M-11.876-6.112c0,.3,0,.594,0,.891,0,.173-.024.2-.192.2q-.918,0-1.836,0c-.148,0-.169-.021-.169-.176q0-.921,0-1.842c0-.186.025-.208.2-.208h1.757c.205,0,.235.03.237.244,0,.3,0,.594,0,.891" transform="translate(14.076 7.248)"/></g></g></g></svg>