<svg xmlns="http://www.w3.org/2000/svg" viewBox="0 0 128 187"><defs><style>.cls-1{fill:#fff;}</style></defs><title>자산 1</title><g id="레이어_2" data-name="레이어 2"><g id="레이어_1-2" data-name="레이어 1"><path class="cls-1" d="M11,40H118c6,0,10-4,10-10s-4-11-10-11H92c0-8,1-19-10-19H47C35,0,36,11,36,19H11A11.1,11.1,0,0,0,0,30C0,36,5,40,11,40ZM58,13H71c3,0,6,3,7,6H50A8.71,8.71,0,0,1,58,13Z"/><path class="cls-1" d="M109,45H20A20.06,20.06,0,0,0,0,65V167a20.06,20.06,0,0,0,20,20h89c10,0,19-9,19-20V65C128,54,119,45,109,45ZM36,163a5.76,5.76,0,0,1-6,6c-3,0-5-3-5-6V72c0-3,2-6,5-6a5.76,5.76,0,0,1,6,6Zm34,0a6.45,6.45,0,0,1-6,6,6.45,6.45,0,0,1-6-6V72a6.45,6.45,0,0,1,6-6,6.45,6.45,0,0,1,6,6Zm34,0a6,6,0,0,1-12,0V72a6,6,0,0,1,12,0Z"/></g></g></svg>