<svg xmlns="http://www.w3.org/2000/svg" xmlns:xlink="http://www.w3.org/1999/xlink" viewBox="0 0 70 70"><defs><style>.a{fill:#e4e4e4;}.b{clip-path:url(#a);}.c{fill:#1a2748;fill-rule:evenodd;}</style><clipPath id="a"><path class="a" d="M0-847.25H70v70H0Z" transform="translate(0 847.25)"/></clipPath></defs><g transform="translate(0 847.25)"><g class="b" transform="translate(0 -847.25)"><g transform="translate(42.874 30.876)"><path class="c" d="M-302.035-44.918A11.075,11.075,0,0,1-304-43.53c-.483.267-.971.527-1.47.763-.409.194-.834.355-1.257.519-.386.15-.773.3-1.168.421-.464.146-.936.267-1.4.4-.184.051-.369.1-.555.14-.521.112-1.042.224-1.565.328-.355.07-.712.136-1.07.186-.43.061-.862.113-1.3.151-.591.051-1.182.1-1.774.125a29.348,29.348,0,0,1-3.1-.023c-.565-.032-1.128-.112-1.69-.18-.379-.046-.757-.1-1.134-.166-.266-.045-.529-.109-.792-.169-.205-.047-.408-.1-.613-.151a14.193,14.193,0,0,1-1.973-.627,12.606,12.606,0,0,1-2.6-1.362,9.887,9.887,0,0,1-1.578-1.345c-.163-.173-.163-.183-.009-.355a9.785,9.785,0,0,1,2.386-1.934,12.894,12.894,0,0,1,1.535-.763c.363-.152.737-.28,1.113-.4.477-.149.956-.294,1.442-.409s.968-.2,1.456-.274c.521-.08,1.044-.156,1.569-.2a25.25,25.25,0,0,1,3.338-.084c.579.032,1.159.049,1.737.1.6.049,1.193.12,1.788.2.366.046.728.116,1.092.179.279.048.558.1.835.153.31.062.618.131.927.2.231.051.462.1.693.158.179.043.359.085.535.137.46.136.921.27,1.378.419.5.163,1,.325,1.49.516s.979.417,1.467.631a16.409,16.409,0,0,1,1.64.862c.2.115.394.237.591.356Z" transform="translate(329.161 48.963)"/></g><g transform="translate(0 30.804)"><path class="c" d="M0-51.161a1.841,1.841,0,0,1,.152-.17,10.883,10.883,0,0,1,1.562-1.14c.532-.314,1.072-.616,1.622-.9.386-.2.791-.355,1.192-.52.358-.147.72-.288,1.085-.418.285-.1.575-.187.865-.274.346-.1.694-.2,1.042-.3.165-.046.331-.088.5-.124.431-.093.862-.188,1.295-.272.356-.069.713-.13,1.071-.184s.73-.108,1.1-.148a30.946,30.946,0,0,1,4.839-.117c.565.028,1.128.108,1.691.175.386.046.77.106,1.154.168.227.037.454.081.678.137.574.145,1.152.281,1.717.456.483.149.952.343,1.424.526a11.783,11.783,0,0,1,1.73.857,11.052,11.052,0,0,1,2.077,1.569c.128.124.131.128.021.276a8.281,8.281,0,0,1-1.337,1.4,10.342,10.342,0,0,1-2.035,1.315,12.8,12.8,0,0,1-1.525.642c-.447.155-.905.278-1.364.394s-.9.207-1.35.295c-.317.061-.637.109-.958.142-.669.068-1.337.136-2.01.157-1.069.034-2.136.016-3.2-.045-.558-.032-1.115-.11-1.671-.175q-.628-.073-1.254-.165c-.28-.041-.559-.094-.837-.146-.343-.065-.686-.13-1.026-.207-.4-.091-.807-.192-1.208-.295-.344-.088-.688-.179-1.029-.279-.322-.094-.64-.2-.959-.3-.262-.086-.524-.174-.783-.269-.352-.128-.7-.254-1.05-.4-.406-.169-.809-.349-1.207-.536A15.985,15.985,0,0,1,.088-51.088C.067-51.1.049-51.121,0-51.161" transform="translate(0 55.768)"/></g><g transform="translate(30.642 0)"><path class="c" d="M-46,0c.261.347.5.652.726.968a13.2,13.2,0,0,1,1.147,1.96c.272.57.508,1.157.747,1.742.154.378.3.762.419,1.151.145.458.27.924.394,1.388.108.4.207.8.3,1.209.052.218.1.439.135.659.055.312.1.625.152.938.039.248.08.5.111.744.056.445.118.891.153,1.338.051.652.087,1.3.117,1.958a25.251,25.251,0,0,1-.086,3.168,17.328,17.328,0,0,1-.29,2.158c-.093.445-.168.895-.271,1.338-.082.353-.188.7-.3,1.046-.123.389-.248.779-.395,1.159s-.311.755-.487,1.123a11.588,11.588,0,0,1-.9,1.556,10.411,10.411,0,0,1-1,1.249c-.154.163-.169.163-.341.035a9.138,9.138,0,0,1-2.127-2.27A10.674,10.674,0,0,1-48.817,22.7c-.194-.475-.364-.962-.51-1.453-.162-.543-.295-1.095-.419-1.648-.074-.328-.114-.663-.156-1-.063-.5-.123-1-.167-1.5-.034-.388-.053-.778-.059-1.168a29.306,29.306,0,0,1,.1-3.109c.083-.9.183-1.8.346-2.69.108-.59.218-1.181.351-1.766.138-.61.3-1.216.462-1.82q.178-.658.391-1.307c.125-.381.269-.757.414-1.132.166-.43.33-.861.515-1.283s.388-.851.607-1.264c.244-.459.514-.9.776-1.354A2.353,2.353,0,0,1-46,0" transform="translate(50.132)"/></g><g transform="translate(30.64 43.29)"><path class="c" d="M-51.186-296.578c-.05-.069-.08-.121-.119-.164a13.232,13.232,0,0,1-1.884-2.751,13.94,13.94,0,0,1-.744-1.636c-.176-.476-.369-.945-.528-1.427-.151-.456-.274-.922-.4-1.387-.106-.395-.212-.791-.294-1.191-.106-.517-.193-1.038-.278-1.559-.065-.4-.114-.811-.17-1.216-.009-.065-.02-.131-.026-.2a28.731,28.731,0,0,1-.105-4.593c.034-.533.1-1.065.16-1.6q.066-.58.159-1.157c.044-.273.107-.544.166-.815.05-.232.1-.464.162-.693.1-.369.2-.737.314-1.1.079-.258.166-.514.266-.765.162-.41.317-.825.512-1.22.234-.471.493-.932.768-1.381a9.521,9.521,0,0,1,1.375-1.733c.163-.164.178-.164.361-.025a8.757,8.757,0,0,1,1.977,2.142,10.69,10.69,0,0,1,1.021,1.938,15.589,15.589,0,0,1,.511,1.495c.162.563.3,1.136.418,1.71.082.393.109.8.175,1.195a17.77,17.77,0,0,1,.177,2.013,22.687,22.687,0,0,1-.069,3.327c-.067.7-.139,1.406-.229,2.107-.074.576-.165,1.151-.27,1.722-.082.447-.194.889-.3,1.332-.089.379-.178.758-.278,1.134-.087.325-.187.646-.286.967-.093.3-.189.6-.29.9q-.127.374-.269.743c-.14.362-.281.725-.435,1.081-.146.339-.295.678-.468,1-.292.545-.6,1.08-.913,1.617a1.259,1.259,0,0,1-.168.181" transform="translate(55.783 323.288)"/></g><g transform="translate(10.249 9.508)"><path class="c" d="M0,0A.936.936,0,0,1,.2.015c.477.148.954.3,1.428.453.4.133.793.278,1.189.421.463.167.929.33,1.387.51.428.168.85.35,1.271.534.463.2.927.407,1.383.624.4.192.8.391,1.193.611.641.363,1.282.727,1.9,1.123a20.764,20.764,0,0,1,4.543,3.875A18.033,18.033,0,0,1,16.513,11a16.3,16.3,0,0,1,1.1,2.254c.183.473.366.946.531,1.425.109.317.193.644.279.969.1.389.2.778.293,1.171.066.289.117.582.167.875.064.377.121.756.181,1.134a1.548,1.548,0,0,1,.025.156c.005.1-.025.131-.126.129a1.974,1.974,0,0,1-.276-.021c-.371-.058-.741-.118-1.111-.182q-.428-.074-.853-.162c-.232-.048-.462-.1-.692-.161q-.315-.08-.627-.175c-.346-.1-.692-.208-1.034-.324s-.669-.236-1-.369c-.4-.16-.791-.324-1.175-.509a17.827,17.827,0,0,1-1.758-.975,18.418,18.418,0,0,1-2.189-1.621,19.453,19.453,0,0,1-2.588-2.719q-.722-.918-1.352-1.9A24.713,24.713,0,0,1,3.054,7.812c-.3-.6-.605-1.2-.881-1.812S1.66,4.788,1.418,4.176Q1.081,3.322.772,2.457c-.144-.4-.268-.813-.4-1.221Q.2.69.026.143A1.328,1.328,0,0,1,0,0"/></g><g transform="translate(40.691 39.766)"><path class="c" d="M-212.52-209.517c-.237-.04-.443-.07-.648-.11q-.465-.092-.927-.2c-.218-.05-.435-.107-.651-.165-.356-.1-.711-.191-1.065-.294-.29-.084-.58-.172-.866-.271-.4-.136-.794-.278-1.186-.429q-.514-.2-1.018-.425c-.432-.193-.861-.392-1.285-.6-.4-.2-.8-.4-1.184-.628-.641-.388-1.281-.782-1.9-1.209A20.194,20.194,0,0,1-227-217.2a19.108,19.108,0,0,1-2.228-3.14,17.631,17.631,0,0,1-.872-1.749c-.191-.447-.359-.906-.518-1.366-.153-.442-.294-.889-.414-1.341-.112-.42-.192-.849-.279-1.276-.049-.239-.089-.48-.121-.722-.06-.451-.112-.9-.167-1.356a.946.946,0,0,1-.009-.118.1.1,0,0,1,.126-.115c.039,0,.078.01.117.017.532.091,1.067.17,1.6.276.4.081.793.19,1.186.3.43.12.86.247,1.284.388.349.116.693.248,1.034.387.3.124.6.257.9.4.489.242.98.48,1.454.75a17.411,17.411,0,0,1,2.188,1.484,20.925,20.925,0,0,1,3.579,3.651,26.662,26.662,0,0,1,2.031,3.04c.39.68.75,1.377,1.1,2.077q.466.926.881,1.877c.265.6.5,1.217.749,1.828q.272.678.53,1.362c.112.3.212.6.315.895a.869.869,0,0,1,.018.133" transform="translate(231.607 228.386)"/></g><g transform="translate(10.231 39.729)"><path class="c" d="M0-215.542c.081-.3.147-.561.222-.819q.149-.513.31-1.022c.1-.3.2-.6.3-.9.087-.256.174-.511.267-.765.13-.359.26-.719.4-1.074.13-.331.271-.658.412-.984.168-.387.328-.778.516-1.154.324-.648.655-1.293,1.006-1.926a22.85,22.85,0,0,1,1.575-2.442,22.115,22.115,0,0,1,1.976-2.343,19.805,19.805,0,0,1,2.646-2.287,20.167,20.167,0,0,1,2.524-1.542,20.949,20.949,0,0,1,1.938-.879c.55-.216,1.11-.411,1.675-.586.5-.153,1-.271,1.507-.394.422-.1.847-.191,1.271-.285a.2.2,0,0,1,.282.167.705.705,0,0,1,.009.235c-.059.6-.114,1.21-.188,1.813-.038.314-.109.624-.172.935-.052.259-.106.517-.172.773-.086.332-.179.662-.281.989q-.138.443-.3.878c-.119.314-.237.63-.383.932-.238.492-.49.977-.75,1.458a14.024,14.024,0,0,1-1.112,1.7,19.468,19.468,0,0,1-3.335,3.449,24.437,24.437,0,0,1-2.975,2.084c-.763.453-1.544.877-2.333,1.283-.613.315-1.248.589-1.878.87-.5.225-1.011.442-1.523.648-.451.181-.911.341-1.367.509q-.573.211-1.149.418-.362.129-.728.247a.879.879,0,0,1-.189.01" transform="translate(0 234.954)"/></g><g transform="translate(40.965 9.464)"><path class="c" d="M-.007-204.436a18.031,18.031,0,0,1,.238-1.928c.087-.467.163-.937.278-1.4s.266-.925.417-1.381c.107-.325.227-.647.364-.96.2-.453.4-.9.628-1.341a14.981,14.981,0,0,1,1.2-1.909,18.763,18.763,0,0,1,3.24-3.4,21.385,21.385,0,0,1,2.431-1.76c.69-.422,1.38-.846,2.089-1.234.645-.354,1.31-.672,1.975-.986s1.313-.605,1.98-.885c.63-.264,1.271-.5,1.909-.748.362-.14.725-.275,1.087-.415a1.418,1.418,0,0,1,.605-.056c.094.005.119.068.1.155-.058.223-.111.448-.173.67-.1.368-.208.736-.322,1.1-.13.415-.269.827-.409,1.239-.131.387-.261.774-.406,1.156-.164.431-.337.858-.517,1.283q-.238.564-.5,1.118c-.2.429-.4.862-.629,1.276-.352.633-.72,1.258-1.1,1.876a19.639,19.639,0,0,1-1.465,2.04,19.547,19.547,0,0,1-3.253,3.2,18.946,18.946,0,0,1-2.647,1.717,20.065,20.065,0,0,1-1.852.877c-.516.213-1.042.406-1.572.58-.468.154-.947.275-1.424.4q-.62.163-1.247.3c-.27.06-.543.1-.817.145-.178.026-.2-.009-.2-.192s0-.357,0-.535" transform="translate(0.008 222.848)"/></g></g></g></svg>