<svg xmlns="http://www.w3.org/2000/svg" xmlns:xlink="http://www.w3.org/1999/xlink" viewBox="0 0 12 17"><defs><style>.a{fill:none;}.b{clip-path:url(#a);}.c{fill:#1a2748;}</style><clipPath id="a"><path class="a" d="M0-548.808H12v17H0Z" transform="translate(0 548.808)"/></clipPath></defs><g transform="translate(0 548.808)"><g class="b" transform="translate(0 -548.808)"><g transform="translate(0 12.579)"><path class="c" d="M-241.913,0l-1.965,2.647-.054.071c-.151.2-.3.2-.451-.006q-.906-1.218-1.81-2.437L-246.4,0c-2.2.34-3.757,1.164-3.757,2.128,0,1.267,2.686,2.293,6,2.293s6-1.027,6-2.293c0-.964-1.555-1.788-3.758-2.128" transform="translate(250.155)"/></g><g transform="translate(0.236 0)"><path class="c" d="M-169.017-255.1a2.828,2.828,0,0,1-2.887-2.723,2.829,2.829,0,0,1,2.9-2.715,2.829,2.829,0,0,1,2.888,2.722,2.831,2.831,0,0,1-2.9,2.715m5.679-3.65a5.705,5.705,0,0,0-5.673-4.5c-.267.024-.536.038-.8.074a5.679,5.679,0,0,0-3.8,2.111,5.037,5.037,0,0,0-1.089,4.084,4.539,4.539,0,0,0,.813,2.019q1.442,1.956,2.9,3.9l.181.244q.8,1.078,1.6,2.156c.133.178.265.179.4.005l.048-.063,1.739-2.342,1.9-2.555c.386-.52.808-1.021,1.143-1.569a4.93,4.93,0,0,0,.652-3.565" transform="translate(174.775 263.256)"/></g></g></g></svg>