<svg xmlns="http://www.w3.org/2000/svg" xmlns:xlink="http://www.w3.org/1999/xlink" viewBox="0 0 81.035 70"><defs><style>.a{fill:none;}.b{clip-path:url(#a);}.c{fill:#1a2748;}.c,.d{fill-rule:evenodd;}.d{fill:#fff;}</style><clipPath id="a"><path class="a" d="M0-309.653H81.035v70H0Z" transform="translate(0 309.653)"/></clipPath></defs><g transform="translate(0 309.653)"><g class="b" transform="translate(0 -309.653)"><g transform="translate(0 0)"><path class="c" d="M-277.434,0q0,30.544,0,61.013a.646.646,0,0,1-.034.139.685.685,0,0,1-.118-.017,3.188,3.188,0,0,0-1.432-.061,11.376,11.376,0,0,1-1.667.155,2.006,2.006,0,0,1-.863-.2.746.746,0,0,1-.436-.621c-.062-.476-.175-.946-.272-1.418-.046-.225-.112-.446-.152-.671a.49.49,0,0,1,.461-.647l.588-.1a.506.506,0,0,0,.477-.626c-.021-.228-.036-.458-.036-.687q0-26.081,0-52.163c0-.321,0-.323-.331-.329-2.25-.045-4.5-.1-6.751-.132q-3.847-.06-7.693-.094-3.169-.033-6.339-.052-3.836-.02-7.671-.022-4.571,0-9.141.011-3.25.007-6.5.027c-1.164.005-2.327.014-3.491.016q-7.981.017-15.963.03c-2.664,0-5.329-.011-7.993-.018-.467,0-.934-.009-1.4-.012-.22,0-.251.024-.265.247-.04.6-.08,1.192-.11,1.788-.052,1.04-.1,2.08-.144,3.12-.067,1.729-.135,3.457-.184,5.187-.036,1.247-.051,2.5-.061,3.743-.025,3.193-.052,6.385-.058,9.577,0,2.128.027,4.256.043,6.385.017,2.251.041,4.5.052,6.752q.026,5.5.035,11c0,1.868-.028,3.736-.044,5.6,0,.031,0,.061,0,.092.005.187.024.206.211.221.672.052,1.342.112,2.015.153,1.169.071,2.338.15,3.508.19,1.9.066,3.8.124,5.694.147,2.411.029,4.823.027,7.234.024,2.327,0,4.655-.02,6.982-.037q3.135-.024,6.27-.063c2.044-.023,4.088-.074,6.131-.066,1.729.007,3.459.069,5.188.132.9.033,1.8.1,2.7.187.8.073,1.6.177,2.394.281.538.07,1.074.164,1.61.246.2.031.229.054.225.266a2.3,2.3,0,0,1-1.222,2.068,5.285,5.285,0,0,1-1.8.585,19.721,19.721,0,0,1-4.147.107c-.833-.04-1.665-.108-2.5-.151-.688-.035-1.376-.075-2.065-.076q-20.8-.007-41.6,0c-.365,0-.364,0-.364-.365q0-29.929,0-59.857c0-.184-.014-.368,0-.551a.927.927,0,0,1,.073-.283A.251.251,0,0,1-358.12,0c.053,0,.107,0,.161,0h80.526Z" transform="translate(358.469 0.004)"/></g><g transform="translate(50.451 25.337)"><path class="c" d="M-75.556-45.582a10.5,10.5,0,0,0-.231-2.2,8.465,8.465,0,0,0-.881-2.326,7.819,7.819,0,0,0-5.708-3.933,9.983,9.983,0,0,0-2.013-.123,8.714,8.714,0,0,0-3.359.734,9.236,9.236,0,0,0-4,3.4,9.508,9.508,0,0,0-1.312,2.911,8.741,8.741,0,0,0-.291,1.808,8.225,8.225,0,0,0,.195,2.279,7.624,7.624,0,0,0,.938,2.278,8.234,8.234,0,0,0,2.552,2.567A9.17,9.17,0,0,0-85.082-36.6a8.472,8.472,0,0,0,3.488-.534,9.1,9.1,0,0,0,2.919-1.779,9.308,9.308,0,0,0,2.893-4.795,8.529,8.529,0,0,0,.226-1.87m.728,9.252c-.09.02-.163.039-.236.051a9.375,9.375,0,0,0-1.966.53,9.789,9.789,0,0,0-1.921,1.015c-.869.6-1.725,1.215-2.587,1.823-.119.084-.243.159-.358.248a.259.259,0,0,1-.352,0,3.155,3.155,0,0,0-1.055-.488,6.019,6.019,0,0,0-1.565-.21c-.727,0-1.454.021-2.18.05a14.861,14.861,0,0,1-2.453-.077c-.235-.03-.468-.077-.7-.118-.143-.025-.215-.136-.289-.244-.266-.383-.523-.773-.8-1.148a14.11,14.11,0,0,0-3.018-3.093,9.936,9.936,0,0,0-1.525-.929A1.5,1.5,0,0,0-95.976-39c-.121-.043-.128-.124-.111-.237.05-.34.11-.681.126-1.024a6.685,6.685,0,0,0-.262-2.04,25.087,25.087,0,0,0-.859-2.391,8.3,8.3,0,0,1-.512-1.827,3.6,3.6,0,0,1,.421-2.214,9.654,9.654,0,0,1,.993-1.43,15.1,15.1,0,0,0,1.157-1.6,4.746,4.746,0,0,0,.69-2.828c0-.038-.007-.076-.009-.114-.007-.111.039-.174.157-.177s.229-.012.344-.018a5.419,5.419,0,0,0,2.892-1.043,13.63,13.63,0,0,0,1.508-1.306,8.79,8.79,0,0,1,1.412-1.169,3.224,3.224,0,0,1,1.4-.471,2.617,2.617,0,0,1,.995.134,17.482,17.482,0,0,1,1.889.759,7.574,7.574,0,0,0,1.836.561,4.513,4.513,0,0,0,1.644-.042,4.988,4.988,0,0,0,1.02-.334c.148-.069.191-.052.3.1.58.77,1.17,1.532,1.813,2.252a12.819,12.819,0,0,0,3.551,2.867c.263.139.535.26.807.382.2.089.208.106.128.3a4.172,4.172,0,0,0-.3,2.378,9.194,9.194,0,0,0,.625,1.912c.263.626.544,1.246.777,1.884a3.77,3.77,0,0,1,.13,2.324A4.67,4.67,0,0,1-72.2-41.82c-.386.513-.793,1.011-1.19,1.517a7.492,7.492,0,0,0-1.07,1.7,4.641,4.641,0,0,0-.373,2.035c0,.068,0,.136,0,.235" transform="translate(97.625 58.896)"/></g><g transform="translate(6.56 6.743)"><path class="c" d="M-48.864-53.529a.71.71,0,0,0-.125.046,4.041,4.041,0,0,1-2.108.611,7.347,7.347,0,0,1-1.6-.091,7.172,7.172,0,0,1-1.706-.509.9.9,0,0,0-.153-.041.358.358,0,0,0-.034.066.238.238,0,0,0,0,.068.806.806,0,0,1-.483.856,4.924,4.924,0,0,0-.511.3.662.662,0,0,0-.278.433.311.311,0,0,0,.121.345c.143.1.277.218.427.308a6.373,6.373,0,0,0,2.176.747,9.507,9.507,0,0,0,2.378.115,5.723,5.723,0,0,0,2.167-.535,2.426,2.426,0,0,0,1.117-.985,2.418,2.418,0,0,0,.108-.278,1.785,1.785,0,0,1-1.036-.447,1.947,1.947,0,0,1-.456-1.013m-.709-9.07a.444.444,0,0,0,.017.375c.05.1.111.2.155.307.06.146.149.3,0,.448s-.3.089-.448.024c-.259-.113-.52-.225-.767-.361-.709-.391-1.409-.8-2.118-1.189a5.192,5.192,0,0,0-1.591-.63,1.33,1.33,0,0,0-1.441.616,3.219,3.219,0,0,0-.432,1.079c-.059.269-.1.542-.152.812-.016.077-.037.184-.092.217-.1.058-.159-.059-.227-.111-.084-.066-.154-.149-.234-.22-.114-.1-.2-.08-.224.069a.962.962,0,0,0-.007.341c.058.323.117.648.2.965a10.657,10.657,0,0,0,.9,2.252,27.729,27.729,0,0,0,2.34,3.425.363.363,0,0,0,.182.125,5.954,5.954,0,0,0,2.16.2,4.053,4.053,0,0,0,1.567-.481,4.951,4.951,0,0,0,1.719-1.654,9.194,9.194,0,0,0,.952-1.9c.207-.558.389-1.126.572-1.693.134-.414.249-.834.378-1.25.071-.228.06-.257-.171-.326s-.458-.122-.68-.2a12.9,12.9,0,0,1-1.635-.772c-.295-.156-.6-.3-.924-.463M-51.3-45.184a32.818,32.818,0,0,1-3.965-.2c-.669-.077-1.339-.144-2-.253-.618-.1-1.228-.249-1.841-.384a12.7,12.7,0,0,1-1.86-.573,8.279,8.279,0,0,1-1.976-1.052.426.426,0,0,1-.188-.406,4.134,4.134,0,0,1,.675-2.208A4.2,4.2,0,0,1-61-51.56a8.715,8.715,0,0,1,1.907-.772c.786-.224,1.576-.434,2.363-.655.309-.087.615-.184.92-.283.175-.057.19-.075.15-.244-.075-.32-.153-.64-.249-.954a21.727,21.727,0,0,0-1.305-3.026,11.273,11.273,0,0,1-.777-1.957,11.016,11.016,0,0,1-.285-1.95,10.56,10.56,0,0,1,.042-2.132,6.824,6.824,0,0,1,1.278-3.394A5.348,5.348,0,0,1-54.7-68.678a6.531,6.531,0,0,1,3.26-.442,7.7,7.7,0,0,1,4.054,1.673,7.052,7.052,0,0,1,2.246,3.1,7.861,7.861,0,0,1,.384,3.618,8.059,8.059,0,0,1-.379,1.745,4.473,4.473,0,0,1-.707,1.227c-.353.472-.73.925-1.072,1.4a6.052,6.052,0,0,0-.543.927,1.8,1.8,0,0,0,.735,2.441,4.914,4.914,0,0,0,1.3.554c.707.2,1.421.367,2.127.564a7.879,7.879,0,0,1,1.919.738,2.565,2.565,0,0,1,1.138,1.219,2.228,2.228,0,0,1,.179.755,3.412,3.412,0,0,1-.085,1.115,2.2,2.2,0,0,1-.756,1.1,4.953,4.953,0,0,1-1.4.777,10.079,10.079,0,0,1-1.808.507c-.609.112-1.224.195-1.839.267a31.88,31.88,0,0,1-3.207.2c-.719.012-1.439,0-2.159,0" transform="translate(63.137 69.164)"/></g><g transform="translate(53.464 52.259)"><path class="c" d="M-6.91,0A.427.427,0,0,1-6.8.027,4.667,4.667,0,0,0-4.924.655C-3.82.84-2.7.9-1.592,1c.64.055,1.28.119,1.916.208a9.525,9.525,0,0,1,1.943.437,4.648,4.648,0,0,1,.866.411.72.72,0,0,0,.7.059c.3-.126.588-.29.881-.437a1.61,1.61,0,0,1,.6-.212.845.845,0,0,1,.026.18c-.055.686-.11,1.373-.173,2.058-.05.533-.111,1.065-.169,1.6-.039.35-.078.7-.125,1.048Q4.676,7.738,4.48,9.124c-.12.84-.241,1.681-.369,2.52-.083.544-.184,1.086-.274,1.629s-.171,1.088-.26,1.631-.181,1.055-.27,1.583c-.053.316-.1.634-.154.951-.014.087-.034.174-.06.3-.259-.136-.491-.247-.712-.376a9.224,9.224,0,0,1-1.5-1.1c-.508-.454-1-.921-1.507-1.38a13.662,13.662,0,0,0-1.608-1.292.409.409,0,0,0-.365-.073c-.293.086-.588.167-.876.267a31.084,31.084,0,0,0-2.9,1.3,13.621,13.621,0,0,1-2.1.79c-.131.037-.268.054-.431.086a1.145,1.145,0,0,1-.026-.2c.042-.711.08-1.421.134-2.131.045-.587.1-1.174.167-1.759.048-.449.108-.9.166-1.344q.064-.489.138-.977.211-1.4.425-2.79.18-1.179.361-2.358c.09-.582.184-1.163.27-1.746.056-.378.1-.758.151-1.137.054-.433.1-.866.156-1.3C-6.951.15-6.928.08-6.91,0" transform="translate(8.928)"/></g><g transform="translate(31.63 11.484)"><path class="c" d="M-64.477-.267c2.614-.027,5.415-.076,8.216-.078,2.066,0,4.133.043,6.2.1,1.323.034,2.645.115,3.967.184q1.089.057,2.176.144c.587.046,1.173.111,1.759.17.472.048.943.1,1.415.15.13.014.259.027.387.05.154.028.191.08.147.218a1.45,1.45,0,0,1-.726.905,2,2,0,0,1-.812.224,7.1,7.1,0,0,1-1.715-.091,17.574,17.574,0,0,0-3.657-.238c-2.954.055-5.908.1-8.862.146-1.875.031-3.75.071-5.625.091-1.974.022-3.949.045-5.924.031-2.143-.016-4.286-.033-6.427-.152q-1.685-.094-3.369-.2-.893-.057-1.785-.139c-.51-.047-1.02-.107-1.528-.169C-81.324.991-82.006.9-82.689.812c-.151-.02-.3-.056-.452-.079A.17.17,0,0,1-83.3.527c0-.122-.007-.245-.009-.367,0-.3.1-.446.417-.433,1.04.042,2.08.091,3.121.1,2.227.022,4.454.025,6.682.028q1.665,0,3.33-.025c1.7-.026,3.4-.062,5.284-.1" transform="translate(83.31 0.345)"/></g><g transform="translate(9.22 33.698)"><path class="c" d="M-19.163-3.391a4.816,4.816,0,0,0-1.761.344A4.379,4.379,0,0,0-23.078-1.3a4.945,4.945,0,0,0-.735,2.362,6.106,6.106,0,0,0,.182,1.912,3.715,3.715,0,0,0,.516,1.119q.573.886,1.172,1.754A4.02,4.02,0,0,1-21.254,7.5c.113.71.229,1.42.325,2.133.146,1.084.3,2.167.546,3.233a8.07,8.07,0,0,0,.456,1.44,2.32,2.32,0,0,0,.529.8.886.886,0,0,0,.593.265.932.932,0,0,0,.8-.42,2.643,2.643,0,0,0,.442-1.074c.129-.637.233-1.279.33-1.922a9.878,9.878,0,0,1,.343-1.636,1.755,1.755,0,0,1,.43-.748A.8.8,0,0,1-15.4,9.491a2.045,2.045,0,0,1,.555.574,5.167,5.167,0,0,1,.629,1.808c.146.7.244,1.4.452,2.082a3.226,3.226,0,0,0,.6,1.152c.176.211.362.324.631.172.059-.033.129-.046.19-.076a2.011,2.011,0,0,0,.958-1.154,5.658,5.658,0,0,0,.351-1.421c.1-.843.208-1.685.293-2.53a21.738,21.738,0,0,1,.419-2.788A8.089,8.089,0,0,1-9.461,5.1c.343-.6.707-1.18,1.046-1.778a3.612,3.612,0,0,0,.522-1.6A6.85,6.85,0,0,0-7.913.78,3.848,3.848,0,0,0-8.52-.98a4.722,4.722,0,0,0-3.549-2.146,5.609,5.609,0,0,0-3.425.6.291.291,0,0,1-.3,0,6.852,6.852,0,0,0-1.236-.54,6.421,6.421,0,0,0-2.129-.32m3.517,14.508c-.072.094-.122.149-.16.21a6.432,6.432,0,0,0-.665,1.6c-.182.615-.352,1.234-.548,1.845a2.173,2.173,0,0,1-.549.89,1.493,1.493,0,0,1-.848.425,2,2,0,0,1-2.257-1.021,5.169,5.169,0,0,1-.558-1.57c-.1-.48-.184-.961-.269-1.443-.053-.3-.094-.6-.137-.908-.085-.591-.154-1.184-.254-1.772a13.563,13.563,0,0,0-.548-2.342,8.028,8.028,0,0,0-.575-1.145c-.352-.635-.731-1.255-1.078-1.892a4.826,4.826,0,0,1-.564-1.593A7.357,7.357,0,0,1-24.74.69a6.771,6.771,0,0,1,.254-1.443,4.9,4.9,0,0,1,.838-1.619,5.024,5.024,0,0,1,2.362-1.635,7.477,7.477,0,0,1,3.009-.349,9.225,9.225,0,0,1,2.419.5,1.465,1.465,0,0,0,.967.009,8.431,8.431,0,0,1,3.131-.343,5.632,5.632,0,0,1,2.729.92A4.678,4.678,0,0,1-7.266-1.014a6.293,6.293,0,0,1,.39,2.568,7.188,7.188,0,0,1-.365,1.863,28.246,28.246,0,0,1-1.084,2.65A16.447,16.447,0,0,0-9.19,8.358c-.144.53-.248,1.072-.353,1.612-.109.563-.193,1.131-.3,1.7-.081.452-.158.9-.261,1.351a7.693,7.693,0,0,1-.847,2.363,2.125,2.125,0,0,1-.721.756,1.492,1.492,0,0,1-.669.217,2.019,2.019,0,0,1-1.281-.259,2.177,2.177,0,0,1-.791-.99,8.872,8.872,0,0,1-.451-1.393,19.347,19.347,0,0,0-.63-2.226c-.043-.111-.094-.218-.158-.367" transform="translate(24.76 4.381)"/></g><g transform="translate(31.699 15.817)"><path class="c" d="M-73.686-7.222c-2.158,0-4.356.023-6.552-.007-1.9-.025-3.8-.1-5.693-.17-.864-.031-1.728-.081-2.591-.138-.641-.042-1.281-.108-1.921-.167-.488-.045-.975-.092-1.462-.147-.441-.05-.881-.111-1.32-.17q-.546-.074-1.091-.156c-.25-.037-.5-.077-.747-.121-.168-.03-.186-.091-.076-.231a1.719,1.719,0,0,1,.975-.606A4.551,4.551,0,0,1-92.522-9.2a21.227,21.227,0,0,0,2.43.123q5.145.023,10.289.042,2.86.011,5.719.023C-71-9-67.913-8.988-64.827-9c2.672-.007,5.343-.047,8.015-.062A17.12,17.12,0,0,0-54.3-9.289a2.946,2.946,0,0,1,1.185.036,1.4,1.4,0,0,1,.931.786c.056.111,0,.186-.077.262a3.034,3.034,0,0,1-1.051.681,6.9,6.9,0,0,1-2.427.428,25.929,25.929,0,0,1-2.593-.069c-2.093-.159-4.19-.189-6.288-.157-1.34.02-2.68.016-4.02.031-1.669.018-3.337.045-5.045.068" transform="translate(95.209 9.331)"/></g><g transform="translate(31.976 20.502)"><path class="c" d="M0-2.849c.1-.013.205-.032.309-.038,1.07-.059,2.14-.12,3.21-.173q1.663-.083,3.326-.153c2.424-.1,4.848-.218,7.273-.3,2.157-.069,4.316-.1,6.475-.14,3.261-.061,6.522-.032,9.781.07,1.561.049,3.12.138,4.679.221.84.045,1.681.107,2.519.18.915.08,1.828.177,2.741.276.738.079,1.474.171,2.211.258.045.005.088.017.144.028a.271.271,0,0,1-.185.165,8.4,8.4,0,0,1-2.119.564,22.513,22.513,0,0,1-4.055.145q-3.327-.14-6.658-.1c-2.074.028-4.149.035-6.223.045q-2.94.014-5.88.015c-2.733,0-5.466-.04-8.2-.168C7.771-2.024,6.19-2.136,4.61-2.256c-.854-.065-1.7-.177-2.556-.276C1.4-2.607.749-2.693.1-2.775A.7.7,0,0,1,.01-2.8L0-2.849" transform="translate(0 3.681)"/></g><g transform="translate(32.068 7.009)"><path class="c" d="M-145.978-3.564a4.243,4.243,0,0,1-.91.38,11.193,11.193,0,0,1-3.1.457c-.6.013-1.194.027-1.791.013-1.24-.029-2.479-.092-3.719-.111-1.3-.02-2.6-.013-3.9,0-1.653.013-3.307.049-4.96.061-2.32.017-4.64.031-6.959.026-1.761,0-3.522-.02-5.282-.065-1.591-.041-3.183-.112-4.772-.2-1.1-.062-2.2-.169-3.3-.27-.777-.071-1.553-.159-2.328-.251-.5-.06-1-.139-1.5-.211a.71.71,0,0,1-.117-.038c0-.016,0-.031,0-.047.116-.016.232-.039.35-.045.619-.031,1.239-.057,1.858-.087,2.072-.1,4.144-.208,6.217-.3q2.96-.125,5.921-.215,5.085-.152,10.173-.138c2.634.007,5.267.053,7.9.172,1.445.066,2.889.158,4.332.264,1.351.1,2.7.229,4.048.355.571.054,1.14.133,1.71.2a.908.908,0,0,1,.131.047" transform="translate(188.616 4.604)"/></g><g transform="translate(69.26 50.487)"><path class="c" d="M0-36.713c.01-.175.016-.319.028-.463.056-.679.1-1.359.176-2.035.073-.654.175-1.3.269-1.955.084-.583.175-1.165.262-1.747.04-.265.081-.529.118-.794.131-.939.264-1.878.384-2.819a.269.269,0,0,1,.222-.27c.3-.078.609-.151.9-.254s.6-.247.94-.387c.054.054.145.135.223.225a6.383,6.383,0,0,1,1.1,1.89,12.422,12.422,0,0,1,.654,2.36c.151.858.288,1.719.431,2.578.131.784.25,1.571.395,2.353.1.556.232,1.107.363,1.657.06.252.153.5.229.745.052.172.034.194-.136.235a4.435,4.435,0,0,1-2.111-.069A19.273,19.273,0,0,1,2.5-36.116a10.779,10.779,0,0,0-1.986-.547C.357-36.688.2-36.695,0-36.713" transform="translate(0 47.437)"/></g><g transform="translate(31.664 24.905)"><path class="c" d="M-77.582-7.839c-.472-.058-1.026-.129-1.58-.193-.539-.062-1.078-.146-1.619-.166q-1.709-.062-3.42-.064c-1.485,0-2.969.028-4.454.041q-2.491.023-4.982.039c-.712,0-1.424-.019-2.135-.008-.7.011-1.391.049-2.087.077a4.742,4.742,0,0,1-1.278-.092,1.479,1.479,0,0,1-1.032-.731.51.51,0,0,1,.008-.542,1.078,1.078,0,0,1,.9-.554,7,7,0,0,1,1.328.023,11.476,11.476,0,0,0,1.81.053c1.691-.045,3.381-.1,5.072-.129,1.76-.03,3.52-.048,5.28-.042s3.52.051,5.277.17c1.091.074,2.183.156,3.272.254.6.054,1.2.149,1.8.229.187.025.229.085.178.262a1.686,1.686,0,0,1-1.519,1.327c-.241.033-.488.029-.818.047" transform="translate(100.243 10.129)"/></g><g transform="translate(31.658 51.94)"><path class="c" d="M-36.12-7.339c-1.577.029-3.153.077-4.73.08a32.919,32.919,0,0,1-3.827-.212c-.327-.038-.656-.049-.985-.072a1.347,1.347,0,0,1-.649-.206.725.725,0,0,1-.161-1.125,1.321,1.321,0,0,1,.679-.4,3.811,3.811,0,0,1,1.46-.063,21.4,21.4,0,0,0,2.637.109c.941,0,1.883.015,2.824.021,2.236.014,4.471.038,6.706.034,1.087,0,2.173-.048,3.259-.1.427-.019.851-.1,1.275-.156a3.52,3.52,0,0,1,1.435.042,1.649,1.649,0,0,1,1.021.829.209.209,0,0,1,.025.151A1.5,1.5,0,0,1-26.2-7.345a3.124,3.124,0,0,1-1.163.07c-.517-.061-1.033-.143-1.552-.163-.94-.036-1.882-.054-2.823-.04-1.462.021-2.923.076-4.385.116v.023" transform="translate(46.671 9.483)"/></g><g transform="translate(31.634 29.324)"><path class="c" d="M-33.628-6.98c-1.948.034-3.525.077-5.1.083-.772,0-1.546-.041-2.316-.1a10.029,10.029,0,0,1-2.183-.407c-.177-.055-.2-.092-.218-.271a1.024,1.024,0,0,1,.932-1.13,3.686,3.686,0,0,1,1.029-.037c.381.039.761.081,1.143.1s.765.014,1.147.016c1.753.009,3.506.022,5.258.023,2.113,0,4.225,0,6.338-.017a10.468,10.468,0,0,0,1.253-.141,7.266,7.266,0,0,1,1.389-.149,1.329,1.329,0,0,1,1.249.852.257.257,0,0,1-.066.325,3.065,3.065,0,0,1-1.047.644,7.451,7.451,0,0,1-2.526.4c-.688.016-1.377-.024-2.065-.044-1.53-.046-3.056-.2-4.217-.142" transform="translate(43.45 9.019)"/></g><g transform="translate(31.634 42.855)"><path class="c" d="M-9.749-.683c.718.039,1.436.085,2.154.113A15.7,15.7,0,0,0-5.67-.631,47.882,47.882,0,0,1,.312-.858a17.924,17.924,0,0,1,2.894.31A6.187,6.187,0,0,1,5.021.071c.187.105.2.147.124.347a1.2,1.2,0,0,1-.859.754,2.468,2.468,0,0,1-.747.1c-.5-.014-1.01-.019-1.512-.066A17.036,17.036,0,0,0,.009,1.187c-2.524.064-5.049.123-7.574.044-.978-.031-1.956-.1-2.93-.2-.637-.063-1.267-.2-1.9-.31-.157-.027-.183-.068-.2-.231-.039-.456.126-.724.664-.944a3.251,3.251,0,0,1,1.1-.209c.359-.015.719,0,1.079,0,0-.005,0-.011,0-.016" transform="translate(12.597 0.882)"/></g><g transform="translate(31.639 38.603)"><path class="c" d="M-26.915,0C-25.01.019-23.1.019-21.2.064c1.047.025,2.092.125,3.138.192a1.506,1.506,0,0,1,.16.016c.123.021.165.073.129.189a2.339,2.339,0,0,1-.354.74,2.16,2.16,0,0,1-1.189.771,6.005,6.005,0,0,1-2.074.118c-.655-.051-1.308-.137-1.962-.2A22.321,22.321,0,0,0-25.8,1.751c-1.959.017-3.918.048-5.876.063-.949.007-1.9-.01-2.846-.02-.22,0-.248-.037-.249-.258q0-.631,0-1.263c0-.217.018-.233.238-.231.964.006,1.928.022,2.892.019,1.577-.006,3.153-.024,4.729-.036,0-.008,0-.016,0-.024" transform="translate(34.777)"/></g><g transform="translate(31.635 47.619)"><path class="c" d="M-28.586-.017c1.867,0,3.735-.014,5.6,0A33.512,33.512,0,0,1-19.571.2,18.668,18.668,0,0,1-17.2.594c.2.049.4.09.6.136.168.038.205.11.125.26a1.538,1.538,0,0,1-1.073.82A4.1,4.1,0,0,1-19.2,1.762a16.222,16.222,0,0,0-3.1-.269c-1.653.016-3.306.06-4.959.074-1.73.014-3.46.025-5.189,0-.786-.011-1.573-.1-2.356-.178-.562-.058-1.119-.163-1.678-.247l-.023,0c-.408-.077-.409-.077-.418-.494A1.726,1.726,0,0,1-36.924.3a.266.266,0,0,1,.3-.252c.137,0,.275.006.413.01,2.48.062,4.959.032,7.438-.038.061,0,.122,0,.184,0Z" transform="translate(36.936 0.022)"/></g><g transform="translate(31.639 34.009)"><path class="c" d="M-24.368-.481q2.318-.054,4.636-.108c.665-.015,1.331-.04,2-.03a8.4,8.4,0,0,1,1.708.193,4.484,4.484,0,0,1,1.383.534c.211.13.213.153.123.385a1.149,1.149,0,0,1-.751.751,2.26,2.26,0,0,1-.793.074c-.463-.041-.924-.124-1.382-.208A8.03,8.03,0,0,0-19.163,1c-2.233.072-4.466.152-6.7.2a28.122,28.122,0,0,1-3.783-.149C-30.14.994-30.63.907-31.121.832A1.055,1.055,0,0,1-31.233.8c-.25-.069-.252-.072-.252-.326s0-.505,0-.758c0-.2.033-.229.227-.231.291,0,.582,0,.873,0h6.016c0,.01,0,.02,0,.03" transform="translate(31.486 0.621)"/></g><g transform="translate(54.719 30.061)"><path class="d" d="M-60.943-29.407a8.528,8.528,0,0,1-.226,1.87,9.308,9.308,0,0,1-2.893,4.795,9.1,9.1,0,0,1-2.919,1.779,8.472,8.472,0,0,1-3.488.534,9.17,9.17,0,0,1-4.581-1.582A8.234,8.234,0,0,1-77.6-24.577a7.623,7.623,0,0,1-.938-2.278,8.225,8.225,0,0,1-.195-2.279,8.742,8.742,0,0,1,.291-1.808,9.508,9.508,0,0,1,1.312-2.911,9.236,9.236,0,0,1,4-3.4,8.714,8.714,0,0,1,3.359-.734,9.984,9.984,0,0,1,2.013.123,7.819,7.819,0,0,1,5.708,3.933,8.465,8.465,0,0,1,.881,2.326,10.5,10.5,0,0,1,.231,2.2" transform="translate(78.744 37.996)"/></g><g transform="translate(12.554 12.255)"><path class="d" d="M-25.916-3.607c.327.163.629.307.924.463a12.873,12.873,0,0,0,1.635.772c.222.08.454.135.681.2s.241.1.171.325c-.128.416-.244.836-.378,1.251-.183.567-.365,1.135-.572,1.693A9.194,9.194,0,0,1-24.408,3a4.948,4.948,0,0,1-1.719,1.654,4.05,4.05,0,0,1-1.567.481,5.948,5.948,0,0,1-2.16-.2.362.362,0,0,1-.182-.125,27.758,27.758,0,0,1-2.34-3.426,10.652,10.652,0,0,1-.9-2.252c-.085-.317-.145-.641-.2-.965a.955.955,0,0,1,.007-.341c.028-.149.11-.169.224-.069.08.071.15.154.234.22.068.053.131.169.227.111.055-.033.076-.139.092-.217.055-.27.094-.543.152-.812A3.22,3.22,0,0,1-32.1-4.017a1.331,1.331,0,0,1,1.441-.616,5.2,5.2,0,0,1,1.59.63c.709.391,1.409.8,2.118,1.189.247.136.508.248.767.361.149.065.31.116.448-.024s.056-.3,0-.448c-.043-.106-.105-.2-.155-.307a.444.444,0,0,1-.017-.375" transform="translate(33.486 4.66)"/></g><g transform="translate(13.822 22.378)"><path class="d" d="M-24,0a1.947,1.947,0,0,0,.456,1.013,1.785,1.785,0,0,0,1.036.447,2.417,2.417,0,0,1-.108.278,2.426,2.426,0,0,1-1.117.985,5.723,5.723,0,0,1-2.167.535,9.507,9.507,0,0,1-2.378-.115A6.373,6.373,0,0,1-30.457,2.4c-.15-.09-.284-.206-.427-.308A.311.311,0,0,1-31,1.743a.662.662,0,0,1,.278-.433,4.923,4.923,0,0,1,.511-.3A.806.806,0,0,0-29.732.15a.238.238,0,0,1,0-.068.359.359,0,0,1,.034-.066.9.9,0,0,1,.153.041,7.172,7.172,0,0,0,1.706.509,7.347,7.347,0,0,0,1.6.091A4.041,4.041,0,0,0-24.128.046.711.711,0,0,1-24,0" transform="translate(31.014)"/></g><g transform="translate(10.154 34.688)"><path class="d" d="M-15.965,0a6.421,6.421,0,0,1,2.129.32A6.852,6.852,0,0,1-12.6.858a.291.291,0,0,0,.3,0,5.609,5.609,0,0,1,3.425-.6A4.722,4.722,0,0,1-5.322,2.408a3.848,3.848,0,0,1,.608,1.761,6.851,6.851,0,0,1,.019.939,3.612,3.612,0,0,1-.522,1.6c-.339.6-.7,1.182-1.046,1.778A8.089,8.089,0,0,0-7.124,10.7a21.739,21.739,0,0,0-.419,2.788c-.085.845-.194,1.687-.293,2.53a5.658,5.658,0,0,1-.351,1.421,2.011,2.011,0,0,1-.958,1.154c-.061.03-.131.043-.19.076-.269.152-.455.039-.631-.172a3.226,3.226,0,0,1-.6-1.152c-.208-.681-.306-1.387-.452-2.082a5.167,5.167,0,0,0-.629-1.808,2.045,2.045,0,0,0-.555-.574.8.8,0,0,0-1.066.082,1.755,1.755,0,0,0-.43.748,9.878,9.878,0,0,0-.343,1.636c-.1.643-.2,1.285-.33,1.922a2.643,2.643,0,0,1-.442,1.074.932.932,0,0,1-.8.42A.886.886,0,0,1-16.2,18.5a2.32,2.32,0,0,1-.529-.8,8.07,8.07,0,0,1-.456-1.44c-.25-1.067-.4-2.149-.546-3.233-.1-.713-.211-1.423-.325-2.133a4.02,4.02,0,0,0-.688-1.659q-.6-.869-1.172-1.754a3.715,3.715,0,0,1-.516-1.119,6.106,6.106,0,0,1-.182-1.912,4.945,4.945,0,0,1,.735-2.362A4.379,4.379,0,0,1-17.726.342,4.816,4.816,0,0,1-15.965,0" transform="translate(20.628 0.003)"/></g></g></g></svg>