<svg xmlns="http://www.w3.org/2000/svg" xmlns:xlink="http://www.w3.org/1999/xlink" viewBox="0 0 30 30.682"><defs><style>.a{fill:none;}.b{clip-path:url(#a);}.c{fill:#fff;fill-rule:evenodd;}</style><clipPath id="a"><path class="a" d="M0-304.621H30v30.682H0Z" transform="translate(0 304.621)"/></clipPath></defs><g class="b"><g transform="translate(0 0)"><path class="c" d="M-197.032-117.757a8.78,8.78,0,0,0-8.761-8.845,8.8,8.8,0,0,0-8.783,8.78,8.825,8.825,0,0,0,8.768,8.861,8.813,8.813,0,0,0,8.777-8.8m1.869,7.884,4.027,4.043c.425.427.853.852,1.275,1.282a2.39,2.39,0,0,1,.155,3.574,2.737,2.737,0,0,1-3.724-.042q-2.55-2.528-5.061-5.1a.606.606,0,0,0-.882-.121,13.081,13.081,0,0,1-19.144-8.077A13.231,13.231,0,0,1-207.7-130.818,13.136,13.136,0,0,1-192.771-119.6a12.809,12.809,0,0,1-1.86,8.865c-.168.27-.333.542-.532.866" transform="translate(218.976 130.947)"/></g></g></svg>