<svg xmlns="http://www.w3.org/2000/svg" viewBox="0 0 148.33 137.58"><defs><style>.cls-1{fill:#1a2748;}</style></defs><title>자산 2</title><g id="레이어_2" data-name="레이어 2"><g id="Layer_1" data-name="Layer 1"><path class="cls-1" d="M32.37,50.77a5.11,5.11,0,1,0,5.11,5.11A5.11,5.11,0,0,0,32.37,50.77Z"/><circle class="cls-1" cx="82.82" cy="55.73" r="5.5"/><path class="cls-1" d="M128.49,0H19.84A19.84,19.84,0,0,0,0,19.84V84.32a19.85,19.85,0,0,0,19.84,19.85H58.22l13,30.75s.9,2.66,3.07,2.66h0c2.18,0,3.08-2.66,3.08-2.66l13-30.75h38a19.85,19.85,0,0,0,19.84-19.85V19.84A19.84,19.84,0,0,0,128.49,0ZM46.6,57c-.06,11.79-12.25,12.12-12.25,12.12A10.18,10.18,0,0,1,27,66v2.12H18.1V31.52s0,0,0,0v0c.55.09,8.88,0,8.88,0v14C29.07,41.94,35.1,42,35.1,42,48.25,43.22,46.6,57,46.6,57ZM62.23,43.12V68.19H53.54V43.38c0-3.38-4.19-4.32-4.19-4.32V30.31C63.23,30.88,62.23,43.12,62.23,43.12Zm20.59,26c-8,0-14.56-6-14.56-13.41s6.52-13.4,14.56-13.4,14.56,6,14.56,13.4S90.86,69.14,82.82,69.14Zm47.59,0s.13,12.74-12.81,12.74h-3.94V73.62H116s5.44.5,5.37-7.87c0,0-1.06,3.39-8.68,3.39,0,0-10.82-.78-10.82-11.33v-4S102.16,42.88,114,42a8.83,8.83,0,0,1,7.56,3.38V42.69h8.81Z"/><circle class="cls-1" cx="116.6" cy="55.73" r="5.37"/></g></g></svg>