<svg xmlns="http://www.w3.org/2000/svg" xmlns:xlink="http://www.w3.org/1999/xlink" viewBox="0 0 79 115"><defs><style>.a{fill:none;}.b{clip-path:url(#a);}.c{fill:#1a2748;}.c,.d{fill-rule:evenodd;}.d{fill:#fff;}</style><clipPath id="a"><path class="a" d="M0-544.936H79v115H0Z" transform="translate(0 544.936)"/></clipPath></defs><g transform="translate(0 544.936)"><g class="b" transform="translate(0 -544.936)"><g transform="translate(0 0)"><path class="c" d="M-293.2-118.677c-4.286-20.974-24.3-34.93-45.228-31.116-16.29,2.97-26.8,12.838-31.545,28.692-2.237,7.474-1.559,15.1-.152,22.645A89.556,89.556,0,0,0-360.6-72.5a147.549,147.549,0,0,0,22.6,30.961c1.96,2.1,4.058,4.059,6.128,6.119.259-.233.5-.433.718-.649a156.77,156.77,0,0,0,20.875-24.766c8.874-13.135,15.632-27.151,17.462-43.151a46.559,46.559,0,0,0-.376-14.691" transform="translate(371.421 150.42)"/></g><g transform="translate(15.767 15.797)"><path class="d" d="M-98.74-157.66V-158.9c0-3.833-.009-7.665,0-11.5.007-2.036,1.031-3.055,3.032-3.057q5.79,0,11.58,0H-83v-5.281h-1.182q-5.684,0-11.369,0c-2.208,0-3.183-.982-3.186-3.224-.006-3.8,0-7.595,0-11.392,0-.374-.031-.749-.048-1.127H-103.9v1.238c0,3.8.007,7.595,0,11.392-.006,2.1-1.025,3.111-3.088,3.112q-5.737,0-11.474,0h-1.152v5.281h12.48c2.277,0,3.234.965,3.236,3.279q.007,5.7,0,11.392c0,.368.03.737.047,1.122Zm-10.529-10.525h-3.9c-3.016,0-6.033.007-9.05,0a2.576,2.576,0,0,1-2.817-2.619q-.1-5.271,0-10.544A2.6,2.6,0,0,1-122.15-184q5.788-.009,11.575,0h1.306v-1.17q0-5.694,0-11.388c0-2.311.956-3.267,3.244-3.267q4.84,0,9.681,0a2.69,2.69,0,0,1,2.966,3.016c.016,4.007,0,8.014.007,12.021,0,.21.022.42.043.787h1.116q5.84,0,11.681,0a2.669,2.669,0,0,1,2.944,2.93q.037,4.956,0,9.912a2.692,2.692,0,0,1-3.009,2.975c-4.2,0-8.409,0-12.778,0v1.167q0,5.694,0,11.388c0,2.3-.966,3.269-3.247,3.27q-4.735,0-9.471,0c-2.2,0-3.174-.984-3.177-3.231q-.008-5.642,0-11.283Z" transform="translate(125.083 199.831)"/></g></g></g></svg>