<svg xmlns="http://www.w3.org/2000/svg" xmlns:xlink="http://www.w3.org/1999/xlink" viewBox="0 0 20 12"><defs><style>.a{fill:none;}.b{clip-path:url(#a);}.c{fill:#1a2748;fill-rule:evenodd;}</style><clipPath id="a"><path class="a" d="M0-344.614H12v20H0Z" transform="translate(0 344.614)"/></clipPath></defs><g transform="translate(397.614 568) rotate(-90)"><g class="b" transform="translate(556 -397.614)"><g transform="translate(0 0)"><path class="c" d="M-144.267-162.5l-5.07-4.678q-1.711-1.579-3.422-3.158a1.216,1.216,0,0,1-.116-1.782,1.241,1.241,0,0,1,1.8-.021q4.7,4.328,9.393,8.661a1.221,1.221,0,0,1-.013,1.944q-4.683,4.323-9.371,8.641a1.242,1.242,0,0,1-1.816-.027,1.217,1.217,0,0,1,.14-1.781q4.127-3.81,8.258-7.617c.063-.058.133-.109.223-.183" transform="translate(153.212 172.515)"/></g></g></g></svg>