<svg xmlns="http://www.w3.org/2000/svg" xmlns:xlink="http://www.w3.org/1999/xlink" viewBox="0 0 10.8 18"><defs><style>.a{fill:none;}.b{clip-path:url(#a);}.c{fill:#1a2748;fill-rule:evenodd;}</style><clipPath id="a"><path class="a" d="M0-344.614H10.8v18H0Z" transform="translate(0 344.614)"/></clipPath></defs><g transform="translate(-556 397.614)"><g class="b" transform="translate(556 -397.614)"><g transform="translate(0 0)"><path class="c" d="M-145.162-163.5l-4.563-4.21q-1.54-1.421-3.08-2.842a1.094,1.094,0,0,1-.1-1.6,1.117,1.117,0,0,1,1.616-.019q4.229,3.9,8.453,7.795a1.1,1.1,0,0,1-.011,1.749q-4.215,3.891-8.434,7.777a1.118,1.118,0,0,1-1.635-.024,1.1,1.1,0,0,1,.126-1.6q3.715-3.429,7.432-6.855c.057-.052.12-.1.2-.165" transform="translate(153.212 172.515)"/></g></g></g></svg>