<svg xmlns="http://www.w3.org/2000/svg" xmlns:xlink="http://www.w3.org/1999/xlink" viewBox="0 0 18 30">
  <defs>
    <style>
      .cls-1, .cls-3 {
        fill: #707070;
      }

      .cls-2 {
        clip-path: url(#clip-path);
      }

      .cls-3 {
        fill-rule: evenodd;
      }
    </style>
    <clipPath id="clip-path">
      <path id="패스_9" data-name="패스 9" class="cls-1" d="M0-344.614H18v30H0Z" transform="translate(0 344.614)"/>
    </clipPath>
  </defs>
  <g id="그룹_242" data-name="그룹 242" transform="translate(-556 397.614)">
    <g id="그룹_3" data-name="그룹 3" class="cls-2" transform="translate(556 -397.614)">
      <g id="그룹_2" data-name="그룹 2" transform="translate(0 0)">
        <path id="패스_8" data-name="패스 8" class="cls-3" d="M-139.795-157.5l-7.606-7.017q-2.567-2.368-5.134-4.736a1.824,1.824,0,0,1-.174-2.673,1.862,1.862,0,0,1,2.694-.032q7.048,6.492,14.089,12.991a1.832,1.832,0,0,1-.019,2.916q-7.025,6.485-14.057,12.961a1.863,1.863,0,0,1-2.725-.04,1.826,1.826,0,0,1,.21-2.671q6.191-5.715,12.386-11.425c.095-.087.2-.164.335-.274" transform="translate(153.212 172.515)"/>
      </g>
    </g>
  </g>
</svg>
