<svg xmlns="http://www.w3.org/2000/svg" xmlns:xlink="http://www.w3.org/1999/xlink" viewBox="0 0 124 45"><defs><style>.a{fill:none;}.b{clip-path:url(#a);}.c{fill:#1a2748;stroke:#1a2748;fill-rule:evenodd;}</style><clipPath id="a"><path class="a" d="M0-182.859H124v45H0Z" transform="translate(0 182.859)"/></clipPath></defs><g transform="translate(0 182.859)"><g class="b" transform="translate(0 -182.859)"><g transform="translate(0 0)"><path class="c" d="M-132.705-75.665a26.193,26.193,0,0,0,4.251,10.809c5.541,7.731,16.609,9.537,23.966,3.881,3.8-2.922,5.921-6.955,7.328-11.412.327-1.035.57-2.095.876-3.233h-10.932c-1.2,3.936-3.561,6.008-6.955,6.137-3.667.141-6-1.607-7.557-5.614a1.049,1.049,0,0,0-.774-.544c-3.337-.037-6.675-.024-10.2-.024m-.408-2.219c3.537,0,6.875-.026,10.213.018.815.011,1.079-.264,1.314-1.034A7.362,7.362,0,0,1-109.9-82.469a7.881,7.881,0,0,1,2.652,4.507h11.355a42.427,42.427,0,0,0,.309-11.322,15.955,15.955,0,0,0-1.153-4.606,6.038,6.038,0,0,0-7.122-3.51,41.343,41.343,0,0,0-4.87,1.7c-1.841.7-3.618,1.6-5.5,2.143a9.995,9.995,0,0,1-7.688-.538c-.762-.4-1.376-.936-.867-1.835.479-.847,1.192-.6,1.915-.189a5.99,5.99,0,0,0,4.36.592,21.4,21.4,0,0,0-8.872-2.531c-4.554-.124-7.1,1.8-7.878,6.249-.808,4.591-.4,9.213.146,13.927m-24.02-17.638a21.613,21.613,0,0,0-9.384-2.555c-3.766-.007-6.074,1.654-7.093,5.231a12.571,12.571,0,0,0-.577,3.62c.078,3.844.119,7.705.527,11.523a27.073,27.073,0,0,0,4.085,12.1,16.914,16.914,0,0,0,28.177.744,27.845,27.845,0,0,0,4.454-10.752H-147.79c-1.559,4.572-4.594,6.689-8.678,6.065a7.434,7.434,0,0,1-6.085-7.074,7.376,7.376,0,0,1,5.88-7.357,7.406,7.406,0,0,1,5.037.744,7.621,7.621,0,0,1,3.783,5.264h11.363a44.215,44.215,0,0,0,.3-11.449,15.177,15.177,0,0,0-1.107-4.368,6.026,6.026,0,0,0-7.171-3.61,40.871,40.871,0,0,0-4.872,1.7c-1.843.7-3.619,1.6-5.5,2.142a9.906,9.906,0,0,1-7.9-.672c-.695-.4-1.087-.96-.638-1.718.408-.69,1.044-.7,1.708-.293a6.22,6.22,0,0,0,4.549.715m81.234,0a21.316,21.316,0,0,0-8.659-2.536c-4.9-.174-7.612,1.946-8.123,6.777A93.942,93.942,0,0,0-92.829-81.1a31.075,31.075,0,0,0,.34,3.216c3.422,0,6.72-.023,10.017.016.851.01,1.257-.158,1.531-1.092a7.326,7.326,0,0,1,8.528-5.021,7.5,7.5,0,0,1,5.873,7.517,7.433,7.433,0,0,1-6.26,6.937,7.3,7.3,0,0,1-8.223-5.329.943.943,0,0,0-1.1-.819c-3.1.025-6.192.011-9.288.017a4.606,4.606,0,0,0-.661.107A26.863,26.863,0,0,0-88.259-65.46,17.281,17.281,0,0,0-69.592-58.2c5.627-1.426,9.176-5.273,11.547-10.314C-54.994-75-54.4-81.9-54.91-88.926a16.129,16.129,0,0,0-1.171-4.858A6.019,6.019,0,0,0-63.256-97.4a41.093,41.093,0,0,0-4.872,1.7c-1.843.7-3.62,1.606-5.506,2.144a9.911,9.911,0,0,1-7.909-.681c-.713-.407-1.054-1-.618-1.731.406-.685,1.051-.673,1.715-.268a6.226,6.226,0,0,0,4.548.71m-59.028,1.1c1.864-4.518,5.363-6.28,10.049-5.864a22.834,22.834,0,0,1,4.948.955c2.145.69,4.185,1.7,6.3,2.472a2.835,2.835,0,0,0,1.815.019c1.615-.6,3.157-1.4,4.758-2.041,4.9-1.967,10.049-1.013,12.672,4.351.053-.024.139-.034.156-.074,2.181-5.2,6.542-6.314,11.622-5.543a34.991,34.991,0,0,1,9.542,3.253,2.763,2.763,0,0,0,1.926.031c2-.737,3.9-1.776,5.934-2.4,5.916-1.832,10.746,1.019,12.109,7.037a37.909,37.909,0,0,1,.463,11.5,36.391,36.391,0,0,1-3.935,14.34C-59.3-61.238-63.218-57.432-69.06-56a19.349,19.349,0,0,1-22.1-9.946,62.567,62.567,0,0,1-2.761-7.195c-.093-.247-.176-.5-.266-.756-.854,2.227-1.547,4.449-2.535,6.532-2.856,6.019-7.237,10.374-14.063,11.6-9.367,1.684-17.863-2.924-21.786-11.732-.906-2.035-1.531-4.195-2.347-6.471-.243.8-.447,1.507-.669,2.206-1.6,5.016-4,9.538-8.342,12.765-9.02,6.709-22.121,3.822-28.048-6.136a31.922,31.922,0,0,1-4.146-13.755c-.325-3.7-.306-7.442-.274-11.163a13.3,13.3,0,0,1,.8-4.071c1.462-4.3,4.917-6.451,9.67-6.218a27.133,27.133,0,0,1,10.933,3.2,3.533,3.533,0,0,0,3.434,0,36.536,36.536,0,0,1,6.077-2.346c4.464-1.131,8.009.566,10.229,4.6.078.142.183.269.322.473" transform="translate(176.41 100.364)"/></g></g></g></svg>