<svg xmlns="http://www.w3.org/2000/svg" xmlns:xlink="http://www.w3.org/1999/xlink" viewBox="0 0 73.182 115"><defs><style>.a{fill:none;}.b{clip-path:url(#a);}.c,.d,.e{fill:#1a2748;stroke:#1a2748;fill-rule:evenodd;}.c,.e{stroke-width:1.5px;}.d,.e{stroke-linecap:round;stroke-linejoin:round;}</style><clipPath id="a"><path class="a" d="M0-474.51H73.182v115H0Z" transform="translate(0 474.51)"/></clipPath></defs><g transform="translate(-4 508.51)"><g class="b" transform="translate(4 -508.51)"><g transform="translate(0 0)"><path class="c" d="M-32.719-171.415c-.005,3.545.019,3.7,2.593,3.928A5.733,5.733,0,0,1-24.675-163c1.052,3.446.918,2.74,3.886,2.254,2.674-.439,4.756-.075,6.22,2.418.536.913,1.288,2.194,2.093,2.318s1.9-.873,2.732-1.549c2.2-1.792,4.3-1.567,6.521-.028,2.261,1.565,2.38,1.57,4.062-.6,1.791-2.311,3.832-3.25,6.834-2.54,2.463.583,2.627,1.144,3.567-2.182a5.66,5.66,0,0,1,5.3-4.53,7.032,7.032,0,0,0,.714-.133c2-.412,2.175-.429,2.021-2.413-.278-3.586,1.042-6.025,4.391-7.492,1.622-.711,1.588-.992,1.014-2.65-.224-.647-.44-1.3-.691-1.933a4.652,4.652,0,0,1,.806-4.874c.6-.761,1.193-1.527,1.808-2.275a1.358,1.358,0,0,0-.036-1.954c-.576-.676-1.136-1.366-1.692-2.059a4.626,4.626,0,0,1-.862-4.965c.215-.52.368-1.065.552-1.6.728-2.109.727-2.33-1.292-3.245a6.1,6.1,0,0,1-4-6.588c.191-2.789.046-2.816-2.8-3.175a5.542,5.542,0,0,1-5-3.924c-1.212-3.5-.308-3.457-4.828-2.694a4.884,4.884,0,0,1-5.155-1.838c-2.633-3.442-2.069-3.028-5.365-1.048a5.022,5.022,0,0,1-5.688-.007c-3.225-2.023-2.641-2.222-5.251.883a5.342,5.342,0,0,1-5.676,1.953c-3.86-.781-3.189-.626-4.25,2.379-.014.038-.031.075-.043.113a5.342,5.342,0,0,1-4.6,4.044c-3.324.588-3.345.69-3.33,4.148a5.34,5.34,0,0,1-2.812,5.087c-3.109,1.815-3.086,1.889-1.9,5.323a4.946,4.946,0,0,1-.815,5.106c-.565.685-1.092,1.4-1.671,2.074a1.467,1.467,0,0,0,.063,2.234c.224.232.384.526.616.746,2.27,2.157,2.644,4.591,1.418,7.48-1.014,2.388-.9,2.478,1.45,3.657,2.506,1.259,4.09,3.023,3.638,5.66m-2.864.556c.512-1.692-.49-2.793-2.205-3.545a7.921,7.921,0,0,1-1.837-1.159,3.771,3.771,0,0,1-1.392-4.2,27.927,27.927,0,0,1,1.046-2.956,1.975,1.975,0,0,0-.365-2.229c-.573-.678-1.134-1.368-1.671-2.075-1.479-1.947-1.7-3.76-.017-5.479,2.13-2.176,2.548-4.2,1.171-6.963-.963-1.933-.229-3.519,1.556-4.849a16.908,16.908,0,0,1,2.472-1.519,2.4,2.4,0,0,0,1.335-2.8,13.254,13.254,0,0,1,.023-2.771,3.543,3.543,0,0,1,2.717-3.208,24.713,24.713,0,0,1,3.417-.766,1.986,1.986,0,0,0,1.729-1.459c.3-.917.584-1.846.966-2.729.895-2.069,2.395-3.085,4.527-2.516,2.9.775,4.92.167,6.7-2.362a3.486,3.486,0,0,1,5.34-.949c2.529,1.734,4.608,1.658,7.1-.05,1.98-1.358,3.918-.813,5.472,1.072,2.705,3.284,1.67,2.885,6.181,2.336,2.694-.328,4.244.456,4.931,3.11.654,2.526,1.9,3.71,4.6,3.951,3.06.273,4.18,1.952,4.165,5.042-.018,4.012-.528,3.011,2.853,5.016,2.694,1.6,3.448,3.451,2.109,6.3a4.261,4.261,0,0,0,.892,5.379c2.32,2.5,2.347,4.285.011,6.781a4.314,4.314,0,0,0-.869,5.486c1.28,2.724.648,4.669-2.066,6.078-2.324,1.207-3.39,2.575-3.042,5.358.352,2.815-.9,4.32-3.724,4.7-2.779.371-4.345,1.46-5.024,4.317-.607,2.555-2.469,3.534-5.048,2.889s-4.354-.208-5.99,2.071c-1.822,2.539-3.629,2.648-6.308,1.068a5.351,5.351,0,0,1-.618-.38c-1.442-1.141-2.879-1.328-4.377-.077a6.316,6.316,0,0,1-1.27.7c-2.384,1.187-4.295.974-5.737-1.235-1.544-2.363-3.354-2.8-5.94-2.187-2.644.628-4.216-.43-5.116-3.019-1.355-3.9-.852-3.313-4.646-3.938-3.1-.511-4.126-2.1-4.043-6.216" transform="translate(43.205 226.248)"/></g><g transform="translate(5.553 66.127)"><path class="d" d="M-179.718-130.174c-2.634-11.363-5.234-22.574-7.832-33.784a6.274,6.274,0,0,1-.166-.826c-.079-.856.172-1.575,1.11-1.721a1.461,1.461,0,0,1,1.753,1.281q.858,3.643,1.7,7.289,3.088,13.35,6.173,26.7a3.069,3.069,0,0,1-3.437,3.977c-2.645-.29-5.27-.765-7.914-1.073a2.822,2.822,0,0,0-1.75.4c-1.95,1.3-3.831,2.694-5.741,4.048-2.567,1.82-4.913.951-5.629-2.129q-3.213-13.817-6.385-27.643c-.1-.429-.206-.856-.4-1.656-.658,2.776-1.241,5.206-1.808,7.639-.914,3.919-1.8,7.845-2.732,11.759-.648,2.724-2.819,3.518-5.137,1.911-1.891-1.312-3.824-2.572-5.641-3.978a3.452,3.452,0,0,0-2.92-.65q-3.581.59-7.175,1.105a3.121,3.121,0,0,1-3.576-3.794c2.231-9.686,4.505-19.362,6.749-29.045.221-.953.677-1.584,1.727-1.425.976.147,1.353.974,1.078,2.152q-3.274,14.05-6.544,28.1c-.062.267-.076.545-.137,1,1.594-.213,3.1-.4,4.6-.619,1.317-.191,2.628-.419,3.944-.621a3.571,3.571,0,0,1,2.834.7c2.3,1.7,4.67,3.291,7.194,5.053.482-1.993.934-3.8,1.356-5.617q2.34-10.053,4.666-20.109c.208-.9.478-1.849,1.614-1.772,1.115.076,1.325.937,1.537,1.96.894,4.334,1.926,8.64,2.923,12.952q2.5,10.821,5.029,21.636c.071.3.17.6.311,1.1,1.525-1.06,2.926-2.053,4.346-3.019,4.811-3.271,2.962-2.887,8.743-2.055,1.79.258,3.582.5,5.543.773" transform="translate(237.314 171.814)"/></g><g transform="translate(23.576 25.213)"><path class="e" d="M-84.353,0l2.014,1.964-18.245,18.219-10.8-10.366,2.2-2.092,8.73,8.789L-84.353,0" transform="translate(111.386)"/></g></g></g></svg>