<svg xmlns="http://www.w3.org/2000/svg" viewBox="0 0 37.333 32"><defs><style>.a{fill:#1a2748;fill-rule:evenodd;}</style></defs><path class="a" d="M49.822,34C63.926,34,71.6,21.726,71.6,10.986V9.89a17.447,17.447,0,0,0,3.733-4.164,16.515,16.515,0,0,1-4.356,1.315A8.462,8.462,0,0,0,74.3,2.658a18.43,18.43,0,0,1-4.77,1.973A7.235,7.235,0,0,0,63.926,2a8.023,8.023,0,0,0-7.674,8.11,4.5,4.5,0,0,0,.207,1.753A21.1,21.1,0,0,1,40.7,3.315a8.764,8.764,0,0,0-1.037,4.164,8.867,8.867,0,0,0,3.319,6.795,6.721,6.721,0,0,1-3.526-1.1h0a7.9,7.9,0,0,0,6.222,7.89,6.067,6.067,0,0,1-2.074.219,3.356,3.356,0,0,1-1.452-.219,7.927,7.927,0,0,0,7.259,5.7,15.136,15.136,0,0,1-9.541,3.507A5.45,5.45,0,0,1,38,30.055,18.868,18.868,0,0,0,49.822,34" transform="translate(-38 -2)"/></svg>